<?xml version="1.0" encoding="UTF-8" standalone="no"?>
<svg
   xmlns:dc="http://purl.org/dc/elements/1.1/"
   xmlns:cc="http://creativecommons.org/ns#"
   xmlns:rdf="http://www.w3.org/1999/02/22-rdf-syntax-ns#"
   xmlns:svg="http://www.w3.org/2000/svg"
   xmlns="http://www.w3.org/2000/svg"
   version="1.1"
   id="svg2"
   viewBox="0 0 500.00001 40"
   height="40"
   width="500">
  <defs
     id="defs4">
    <marker
       style="overflow:visible"
       id="Arrow2Mend"
       refX="0"
       refY="0"
       orient="auto">
      <path
         transform="scale(-0.6,-0.6)"
         d="M 8.7185878,4.0337352 -2.2072895,0.01601326 8.7185884,-4.0017078 c -1.7454984,2.3720609 -1.7354408,5.6174519 -6e-7,8.035443 z"
         style="fill:#b3b3b3;fill-opacity:1;fill-rule:evenodd;stroke:#b3b3b3;stroke-width:0.625;stroke-linejoin:round;stroke-opacity:1"
         id="path4363" />
    </marker>
  </defs>
  <metadata
     id="metadata7">
    <rdf:RDF>
      <cc:Work
         rdf:about="">
        <dc:format>image/svg+xml</dc:format>
        <dc:type
           rdf:resource="http://purl.org/dc/dcmitype/StillImage" />
        <dc:title></dc:title>
      </cc:Work>
    </rdf:RDF>
  </metadata>
  <g
     transform="translate(-19,-982.36218)"
     id="layer1">
    <g
       id="g4179">
      <path
         id="path4330"
         d="m 25,1019.0679 469.252,0"
         style="fill:none;fill-rule:evenodd;stroke:#b3b3b3;stroke-width:0.5;stroke-linecap:butt;stroke-linejoin:miter;stroke-miterlimit:4;stroke-dasharray:none;stroke-opacity:1;marker-end:url(#Arrow2Mend)" />
    </g>
    <rect
       ry="2"
       rx="2"
       y="992.36218"
       x="75"
       height="20"
       width="80"
       id="rect4150"
       style="opacity:1;fill:#e3e3e3;fill-opacity:1;stroke:none;stroke-width:1;stroke-linecap:round;stroke-linejoin:round;stroke-miterlimit:4;stroke-dasharray:none;stroke-dashoffset:0;stroke-opacity:1" />
    <g
       id="text4171"
       style="font-style:normal;font-variant:normal;font-weight:500;font-stretch:normal;font-size:40px;line-height:125%;font-family:'Fira Code';-inkscape-font-specification:'Fira Code Medium';letter-spacing:0px;word-spacing:0px;fill:#000000;fill-opacity:1;stroke:none;stroke-width:1px;stroke-linecap:butt;stroke-linejoin:miter;stroke-opacity:1">
      <path
         id="path6458"
         style="font-style:normal;font-variant:normal;font-weight:500;font-stretch:normal;font-size:7.5px;line-height:125%;font-family:'Fira Code';-inkscape-font-specification:'Fira Code Medium';text-align:start;writing-mode:lr-tb;text-anchor:start"
         d="m 94.430897,1001.7972 c 0,-1.1025 -0.7725,-1.6275 -2.0775,-1.6275 l -1.4325,0 0,5.175 0.8625,0 0,-1.845 0.63,0 c 1.185,0 2.0175,-0.495 2.0175,-1.7025 z m -0.9075,0 c 0,0.7875 -0.45,1.0425 -1.1025,1.0425 l -0.6375,0 0,-2.0175 0.63,0 c 0.6675,0 1.11,0.27 1.11,0.975 z" />
      <path
         id="path6460"
         style="font-style:normal;font-variant:normal;font-weight:500;font-stretch:normal;font-size:7.5px;line-height:125%;font-family:'Fira Code';-inkscape-font-specification:'Fira Code Medium';text-align:start;writing-mode:lr-tb;text-anchor:start"
         d="m 98.170468,1001.2872 c -0.6825,0 -1.095,0.3525 -1.395,1.0125 l -0.15,-0.915 -1.2225,0 0,0.6 0.585,0 0,2.76 -0.585,0 0,0.6 2.22,0 0,-0.6 -0.795,0 0,-1.47 c 0.225,-0.7725 0.645,-1.2225 1.2,-1.2375 l 0,0.81 0.6,0 0.1425,-1.4625 c -0.18,-0.06 -0.36,-0.097 -0.6,-0.097 z" />
      <path
         id="path6462"
         style="font-style:normal;font-variant:normal;font-weight:500;font-stretch:normal;font-size:7.5px;line-height:125%;font-family:'Fira Code';-inkscape-font-specification:'Fira Code Medium';text-align:start;writing-mode:lr-tb;text-anchor:start"
         d="m 100.56004,1003.6347 2.625,0 c 0.015,-0.097 0.0225,-0.24 0.0225,-0.375 0,-1.23 -0.66,-1.98 -1.71,-1.98 -1.125,0 -1.807502,0.9 -1.807502,2.085 0,1.2375 0.675002,2.0775 1.912502,2.0775 0.555,0 1.0725,-0.1875 1.44,-0.4875 l -0.36,-0.51 c -0.3375,0.225 -0.66,0.345 -1.0425,0.345 -0.57,0 -1.0275,-0.345 -1.08,-1.155 z m 0.945,-1.7325 c 0.5625,0 0.87,0.4125 0.885,1.1625 l -1.8375,0 c 0.0525,-0.795 0.4275,-1.1625 0.9525,-1.1625 z" />
      <path
         id="path6464"
         style="font-style:normal;font-variant:normal;font-weight:500;font-stretch:normal;font-size:7.5px;line-height:125%;font-family:'Fira Code';-inkscape-font-specification:'Fira Code Medium';text-align:start;writing-mode:lr-tb;text-anchor:start"
         d="m 106.29461,1001.2797 c -0.4425,0 -0.855,0.21 -1.155,0.615 l -0.0525,-0.51 -0.7275,0 0,5.58 0.84,-0.097 0,-1.86 c 0.255,0.2925 0.5925,0.435 1.005,0.435 1.005,0 1.53,-0.8775 1.53,-2.085 0,-1.26 -0.3975,-2.0775 -1.44,-2.0775 z m -0.2325,0.645 c 0.525,0 0.7875,0.42 0.7875,1.44 0,0.99 -0.3,1.425 -0.87,1.425 -0.3225,0 -0.5925,-0.1575 -0.78,-0.4425 l 0,-1.8525 c 0.195,-0.3075 0.4875,-0.57 0.8625,-0.57 z" />
      <path
         id="path6466"
         style="font-style:normal;font-variant:normal;font-weight:500;font-stretch:normal;font-size:7.5px;line-height:125%;font-family:'Fira Code';-inkscape-font-specification:'Fira Code Medium';text-align:start;writing-mode:lr-tb;text-anchor:start"
         d="m 111.88668,1004.3772 0,-1.77 c 0,-0.8325 -0.5175,-1.3275 -1.5825,-1.3275 -0.405,0 -0.8925,0.082 -1.3875,0.27 l 0.21,0.5925 c 0.3975,-0.1425 0.7875,-0.2025 1.05,-0.2025 0.555,0 0.8775,0.2025 0.8775,0.72 l 0,0.255 -0.5625,0 c -1.2075,0 -1.8825,0.4725 -1.8825,1.2975 0,0.735 0.495,1.23 1.305,1.23 0.5025,0 0.9675,-0.18 1.26,-0.5475 0.1425,0.345 0.435,0.5025 0.8175,0.5475 l 0.195,-0.57 c -0.21,-0.067 -0.3,-0.1875 -0.3,-0.495 z m -1.725,0.45 c -0.4425,0 -0.6675,-0.225 -0.6675,-0.645 0,-0.465 0.3075,-0.7425 1.095,-0.7425 l 0.465,0 0,0.8775 c -0.195,0.3225 -0.5475,0.51 -0.8925,0.51 z" />
      <path
         id="path6468"
         style="font-style:normal;font-variant:normal;font-weight:500;font-stretch:normal;font-size:7.5px;line-height:125%;font-family:'Fira Code';-inkscape-font-specification:'Fira Code Medium';text-align:start;writing-mode:lr-tb;text-anchor:start"
         d="m 116.15875,1001.2872 c -0.6825,0 -1.095,0.3525 -1.395,1.0125 l -0.15,-0.915 -1.2225,0 0,0.6 0.585,0 0,2.76 -0.585,0 0,0.6 2.22,0 0,-0.6 -0.795,0 0,-1.47 c 0.225,-0.7725 0.645,-1.2225 1.2,-1.2375 l 0,0.81 0.6,0 0.1425,-1.4625 c -0.18,-0.06 -0.36,-0.097 -0.6,-0.097 z" />
      <path
         id="path6470"
         style="font-style:normal;font-variant:normal;font-weight:500;font-stretch:normal;font-size:7.5px;line-height:125%;font-family:'Fira Code';-inkscape-font-specification:'Fira Code Medium';text-align:start;writing-mode:lr-tb;text-anchor:start"
         d="m 120.88082,1004.3772 0,-1.77 c 0,-0.8325 -0.5175,-1.3275 -1.5825,-1.3275 -0.405,0 -0.8925,0.082 -1.3875,0.27 l 0.21,0.5925 c 0.3975,-0.1425 0.7875,-0.2025 1.05,-0.2025 0.555,0 0.8775,0.2025 0.8775,0.72 l 0,0.255 -0.5625,0 c -1.2075,0 -1.8825,0.4725 -1.8825,1.2975 0,0.735 0.495,1.23 1.305,1.23 0.5025,0 0.9675,-0.18 1.26,-0.5475 0.1425,0.345 0.435,0.5025 0.8175,0.5475 l 0.195,-0.57 c -0.21,-0.067 -0.3,-0.1875 -0.3,-0.495 z m -1.725,0.45 c -0.4425,0 -0.6675,-0.225 -0.6675,-0.645 0,-0.465 0.3075,-0.7425 1.095,-0.7425 l 0.465,0 0,0.8775 c -0.195,0.3225 -0.5475,0.51 -0.8925,0.51 z" />
      <path
         id="path6472"
         style="font-style:normal;font-variant:normal;font-weight:500;font-stretch:normal;font-size:7.5px;line-height:125%;font-family:'Fira Code';-inkscape-font-specification:'Fira Code Medium';text-align:start;writing-mode:lr-tb;text-anchor:start"
         d="m 125.65539,1005.1347 -0.3,-0.555 c -0.2025,0.1125 -0.45,0.1875 -0.735,0.1875 -0.4875,0 -0.69,-0.2025 -0.69,-0.63 l 0,-2.1375 1.245,0 0.0975,-0.615 -1.3425,0 0,-0.9825 -0.84,0.097 0,0.885 -0.8775,0 0,0.615 0.8775,0 0,2.145 c 0,0.78 0.4875,1.2975 1.41,1.2975 0.4425,0 0.8625,-0.12 1.155,-0.3075 z" />
      <path
         id="path6474"
         style="font-style:normal;font-variant:normal;font-weight:500;font-stretch:normal;font-size:7.5px;line-height:125%;font-family:'Fira Code';-inkscape-font-specification:'Fira Code Medium';text-align:start;writing-mode:lr-tb;text-anchor:start"
         d="m 128.42746,999.44223 c -0.33,0 -0.5475,0.2325 -0.5475,0.5325 0,0.29997 0.2175,0.52497 0.5475,0.52497 0.3225,0 0.5475,-0.225 0.5475,-0.52497 0,-0.3 -0.225,-0.5325 -0.5475,-0.5325 z m 0.5775,1.94247 -1.98,0 0,0.615 1.14,0 0,2.73 -1.1775,0 0,0.615 3.0975,0 0,-0.615 -1.08,0 0,-3.345 z" />
      <path
         id="path6476"
         style="font-style:normal;font-variant:normal;font-weight:500;font-stretch:normal;font-size:7.5px;line-height:125%;font-family:'Fira Code';-inkscape-font-specification:'Fira Code Medium';text-align:start;writing-mode:lr-tb;text-anchor:start"
         d="m 132.93203,1001.2797 c -1.155,0 -1.8,0.8475 -1.8,2.085 0,1.2825 0.6375,2.0775 1.7925,2.0775 1.1475,0 1.7925,-0.825 1.7925,-2.085 0,-1.26 -0.63,-2.0775 -1.785,-2.0775 z m 0,0.6525 c 0.6,0 0.9,0.45 0.9,1.425 0,0.99 -0.3,1.44 -0.9075,1.44 -0.6075,0 -0.9075,-0.45 -0.9075,-1.4325 0,-0.9825 0.3075,-1.4325 0.915,-1.4325 z" />
      <path
         id="path6478"
         style="font-style:normal;font-variant:normal;font-weight:500;font-stretch:normal;font-size:7.5px;line-height:125%;font-family:'Fira Code';-inkscape-font-specification:'Fira Code Medium';text-align:start;writing-mode:lr-tb;text-anchor:start"
         d="m 135.8391,1005.3447 0.84,0 0,-2.8425 c 0.21,-0.3 0.54,-0.5775 0.93,-0.5775 0.48,0 0.5625,0.2625 0.5625,0.9525 l 0,2.4675 0.84,0 0,-2.8875 c 0,-0.7425 -0.3675,-1.1775 -1.1025,-1.1775 -0.48,0 -0.9525,0.2175 -1.2825,0.6225 l -0.06,-0.5175 -0.7275,0 0,3.96 z" />
    </g>
    <g
       transform="matrix(0.9858747,0,0,1,64.981718,0)"
       id="g4159">
      <rect
         style="opacity:1;fill:#164e86;fill-opacity:1;stroke:none;stroke-width:1;stroke-linecap:round;stroke-linejoin:round;stroke-miterlimit:4;stroke-dasharray:none;stroke-dashoffset:0;stroke-opacity:1"
         id="rect4148"
         width="121.71932"
         height="20"
         x="207.95572"
         y="992.36218"
         rx="2.0286553"
         ry="2" />
      <g
         id="text4151"
         style="font-style:normal;font-weight:normal;font-size:40px;line-height:125%;font-family:sans-serif;letter-spacing:0px;word-spacing:0px;fill:#ffffff;fill-opacity:1;stroke:none;stroke-width:1px;stroke-linecap:butt;stroke-linejoin:miter;stroke-opacity:1">
        <path
           id="path6481"
           style="font-style:normal;font-variant:normal;font-weight:500;font-stretch:normal;font-size:7.55353785px;line-height:125%;font-family:'Fira Code';-inkscape-font-specification:'Fira Code Medium';text-align:start;writing-mode:lr-tb;text-anchor:start;fill:#ffffff"
           d="m 266.1813,1001.6435 c 0,-1.0122 -0.69493,-1.5107 -2.0319,-1.5107 l -1.45028,0 0,5.2119 0.87621,0 0,-2.1452 0.56651,0 1.31432,2.1452 1.01973,0 -1.4805,-2.266 c 0.67227,-0.204 1.18591,-0.6723 1.18591,-1.4352 z m -0.91398,0 c 0,0.6572 -0.37768,0.914 -1.04239,0.914 l -0.6496,0 0,-1.7751 0.62694,0 c 0.71759,0 1.06505,0.2493 1.06505,0.8611 z" />
        <path
           id="path6483"
           style="font-style:normal;font-variant:normal;font-weight:500;font-stretch:normal;font-size:7.55353785px;line-height:125%;font-family:'Fira Code';-inkscape-font-specification:'Fira Code Medium';text-align:start;writing-mode:lr-tb;text-anchor:start;fill:#ffffff"
           d="m 268.1045,1001.3565 -0.846,0 0,2.893 c 0,0.7478 0.37013,1.1934 1.14814,1.1934 0.46832,0 0.9593,-0.2115 1.25389,-0.6118 l 0.0529,0.5136 0.7327,0 0,-3.9882 -0.846,0 0,2.8854 c -0.19639,0.3097 -0.55896,0.559 -0.92908,0.559 -0.37768,0 -0.56652,-0.1889 -0.56652,-0.6572 l 0,-2.7872 z" />
        <path
           id="path6485"
           style="font-style:normal;font-variant:normal;font-weight:500;font-stretch:normal;font-size:7.55353785px;line-height:125%;font-family:'Fira Code';-inkscape-font-specification:'Fira Code Medium';text-align:start;writing-mode:lr-tb;text-anchor:start;fill:#ffffff"
           d="m 271.78768,1005.3447 0.84599,0 0,-2.8628 c 0.2115,-0.3021 0.54386,-0.5816 0.93664,-0.5816 0.48343,0 0.56652,0.2644 0.56652,0.9593 l 0,2.4851 0.84599,0 0,-2.9081 c 0,-0.7478 -0.37012,-1.1859 -1.11037,-1.1859 -0.48342,0 -0.9593,0.2191 -1.29165,0.627 l -0.0604,-0.5212 -0.73269,0 0,3.9882 z" />
      </g>
    </g>
    <g
       transform="translate(4,0)"
       id="g6433">
      <rect
         style="opacity:1;fill:none;fill-opacity:1;stroke:#e6e6e6;stroke-width:0.49999997;stroke-linecap:round;stroke-linejoin:round;stroke-miterlimit:4;stroke-dasharray:0.49999999, 1.49999997;stroke-dashoffset:0;stroke-opacity:1"
         id="rect4173"
         width="104.5"
         height="19.5"
         x="156.25"
         y="992.61218"
         rx="1.9999999"
         ry="2" />
      <g
         transform="translate(-1.54207,0)"
         id="text4155"
         style="font-style:normal;font-weight:normal;font-size:40px;line-height:125%;font-family:sans-serif;letter-spacing:0px;word-spacing:0px;fill:#000000;fill-opacity:1;stroke:none;stroke-width:1px;stroke-linecap:butt;stroke-linejoin:miter;stroke-opacity:1">
        <path
           id="path6931"
           style="font-style:normal;font-variant:normal;font-weight:normal;font-stretch:normal;font-size:7.5px;line-height:125%;font-family:'Fira Code';-inkscape-font-specification:'Fira Code, Normal';text-align:start;writing-mode:lr-tb;text-anchor:start"
           d="m 206.38207,1004.7672 c 0,0.375 0.285,0.66 0.66,0.66 0.3825,0 0.66,-0.285 0.66,-0.66 0,-0.3675 -0.2775,-0.66 -0.66,-0.66 -0.375,0 -0.66,0.2925 -0.66,0.66 z m 3,0 c 0,0.375 0.285,0.66 0.66,0.66 0.3825,0 0.66,-0.285 0.66,-0.66 0,-0.3675 -0.2775,-0.66 -0.66,-0.66 -0.375,0 -0.66,0.2925 -0.66,0.66 z m 3,0 c 0,0.375 0.285,0.66 0.66,0.66 0.3825,0 0.66,-0.285 0.66,-0.66 0,-0.3675 -0.2775,-0.66 -0.66,-0.66 -0.375,0 -0.66,0.2925 -0.66,0.66 z" />
      </g>
    </g>
    <g
       transform="matrix(1.0937687,0,0,1,283.43469,0.02067641)"
       id="g4184">
      <rect
         style="opacity:1;fill:none;fill-opacity:1;stroke:#e6e6e6;stroke-width:0.47808737;stroke-linecap:round;stroke-linejoin:round;stroke-miterlimit:4;stroke-dasharray:0.47808735, 1.43426207;stroke-dashoffset:0;stroke-opacity:1"
         id="rect4186"
         width="95.5"
         height="19.5"
         x="102.25"
         y="992.61218"
         rx="1.8285402"
         ry="2" />
      <g
         transform="translate(-1.54207,0)"
         id="text4188"
         style="font-style:normal;font-weight:normal;font-size:40px;line-height:125%;font-family:sans-serif;letter-spacing:0px;word-spacing:0px;fill:#000000;fill-opacity:1;stroke:none;stroke-width:1px;stroke-linecap:butt;stroke-linejoin:miter;stroke-opacity:1">
        <path
           id="path6934"
           style="font-style:normal;font-variant:normal;font-weight:normal;font-stretch:normal;font-size:7.5px;line-height:125%;font-family:'Fira Code';-inkscape-font-specification:'Fira Code, Normal';text-align:start;writing-mode:lr-tb;text-anchor:start"
           d="m 147.88207,1004.7672 c 0,0.375 0.285,0.66 0.66,0.66 0.3825,0 0.66,-0.285 0.66,-0.66 0,-0.3675 -0.2775,-0.66 -0.66,-0.66 -0.375,0 -0.66,0.2925 -0.66,0.66 z m 3,0 c 0,0.375 0.285,0.66 0.66,0.66 0.3825,0 0.66,-0.285 0.66,-0.66 0,-0.3675 -0.2775,-0.66 -0.66,-0.66 -0.375,0 -0.66,0.2925 -0.66,0.66 z m 3,0 c 0,0.375 0.285,0.66 0.66,0.66 0.3825,0 0.66,-0.285 0.66,-0.66 0,-0.3675 -0.2775,-0.66 -0.66,-0.66 -0.375,0 -0.66,0.2925 -0.66,0.66 z" />
      </g>
    </g>
    <g
       transform="translate(-205,0)"
       id="g6414">
      <rect
         ry="2"
         rx="2"
         y="992.61218"
         x="225.25"
         height="19.5"
         width="49.5"
         id="rect4185"
         style="opacity:1;fill:none;fill-opacity:1;stroke:#e6e6e6;stroke-width:0.49999997;stroke-linecap:round;stroke-linejoin:round;stroke-miterlimit:4;stroke-dasharray:0.49999999, 1.49999999;stroke-dashoffset:0;stroke-opacity:1" />
      <g
         id="text4187"
         style="font-style:normal;font-weight:normal;font-size:40px;line-height:125%;font-family:sans-serif;letter-spacing:0px;word-spacing:0px;fill:#000000;fill-opacity:1;stroke:none;stroke-width:1px;stroke-linecap:butt;stroke-linejoin:miter;stroke-opacity:1"
         transform="translate(203.45793,-2.5234375e-5)">
        <path
           id="path4230"
           style="font-style:normal;font-variant:normal;font-weight:normal;font-stretch:normal;font-size:7.5px;line-height:125%;font-family:'Fira Code';-inkscape-font-specification:'Fira Code, Normal';text-align:start;writing-mode:lr-tb;text-anchor:start"
           d="m 42.882068,1005.2954 c 0,0.375 0.285,0.66 0.66,0.66 0.3825,0 0.66,-0.285 0.66,-0.66 0,-0.3675 -0.2775,-0.66 -0.66,-0.66 -0.375,0 -0.66,0.2925 -0.66,0.66 z m 3,0 c 0,0.375 0.285,0.66 0.66,0.66 0.3825,0 0.66,-0.285 0.66,-0.66 0,-0.3675 -0.2775,-0.66 -0.66,-0.66 -0.375,0 -0.66,0.2925 -0.66,0.66 z m 3,0 c 0,0.375 0.285,0.66 0.66,0.66 0.3825,0 0.66,-0.285 0.66,-0.66 0,-0.3675 -0.2775,-0.66 -0.66,-0.66 -0.375,0 -0.66,0.2925 -0.66,0.66 z" />
      </g>
    </g>
  </g>
</svg>
