<?xml version="1.0" encoding="utf-8" standalone="no"?>
<!DOCTYPE svg PUBLIC "-//W3C//DTD SVG 1.1//EN"
  "http://www.w3.org/Graphics/SVG/1.1/DTD/svg11.dtd">
<!-- Created with matplotlib (https://matplotlib.org/) -->
<svg height="360pt" version="1.1" viewBox="0 0 720 360" width="720pt" xmlns="http://www.w3.org/2000/svg" xmlns:xlink="http://www.w3.org/1999/xlink">
 <defs>
  <style type="text/css">
*{stroke-linecap:butt;stroke-linejoin:round;}
  </style>
 </defs>
 <g id="figure_1">
  <g id="patch_1">
   <path d="M 0 360 
L 720 360 
L 720 0 
L 0 0 
z
" style="fill:#ffffff;"/>
  </g>
  <g id="axes_1">
   <g id="text_1">
    <!-- Linux -->
    <defs>
     <path d="M 7.671875 0 
L 7.671875 71 
L 22.125 71 
L 22.125 12.0625 
L 58.0625 12.0625 
L 58.0625 0 
z
" id="Arial-BoldMT-76"/>
     <path d="M 7.171875 58.890625 
L 7.171875 71.578125 
L 20.90625 71.578125 
L 20.90625 58.890625 
z
M 7.171875 0 
L 7.171875 51.859375 
L 20.90625 51.859375 
L 20.90625 0 
z
" id="Arial-BoldMT-105"/>
     <path d="M 54.34375 0 
L 40.625 0 
L 40.625 26.46875 
Q 40.625 34.859375 39.75 37.328125 
Q 38.875 39.796875 36.890625 41.15625 
Q 34.90625 42.53125 32.125 42.53125 
Q 28.5625 42.53125 25.734375 40.578125 
Q 22.90625 38.625 21.84375 35.390625 
Q 20.796875 32.171875 20.796875 23.484375 
L 20.796875 0 
L 7.078125 0 
L 7.078125 51.859375 
L 19.828125 51.859375 
L 19.828125 44.234375 
Q 26.609375 53.03125 36.921875 53.03125 
Q 41.453125 53.03125 45.203125 51.390625 
Q 48.96875 49.75 50.890625 47.203125 
Q 52.828125 44.671875 53.578125 41.453125 
Q 54.34375 38.234375 54.34375 32.234375 
z
" id="Arial-BoldMT-110"/>
     <path d="M 41.3125 0 
L 41.3125 7.765625 
Q 38.484375 3.609375 33.859375 1.21875 
Q 29.25 -1.171875 24.125 -1.171875 
Q 18.890625 -1.171875 14.734375 1.125 
Q 10.59375 3.421875 8.734375 7.5625 
Q 6.890625 11.71875 6.890625 19.046875 
L 6.890625 51.859375 
L 20.609375 51.859375 
L 20.609375 28.03125 
Q 20.609375 17.09375 21.359375 14.625 
Q 22.125 12.15625 24.125 10.71875 
Q 26.125 9.28125 29.203125 9.28125 
Q 32.71875 9.28125 35.5 11.203125 
Q 38.28125 13.140625 39.296875 15.984375 
Q 40.328125 18.84375 40.328125 29.984375 
L 40.328125 51.859375 
L 54.046875 51.859375 
L 54.046875 0 
z
" id="Arial-BoldMT-117"/>
     <path d="M 0.59375 0 
L 19.28125 26.703125 
L 1.375 51.859375 
L 18.109375 51.859375 
L 27.296875 37.59375 
L 36.96875 51.859375 
L 53.078125 51.859375 
L 35.5 27.296875 
L 54.6875 0 
L 37.84375 0 
L 27.296875 16.0625 
L 16.65625 0 
z
" id="Arial-BoldMT-120"/>
    </defs>
    <g style="fill:#262626;" transform="translate(129.447049 65.068966)scale(0.12 -0.12)">
     <use xlink:href="#Arial-BoldMT-76"/>
     <use x="61.083984" xlink:href="#Arial-BoldMT-105"/>
     <use x="88.867188" xlink:href="#Arial-BoldMT-110"/>
     <use x="149.951172" xlink:href="#Arial-BoldMT-117"/>
     <use x="211.035156" xlink:href="#Arial-BoldMT-120"/>
    </g>
   </g>
  </g>
  <g id="axes_2">
   <g id="text_2">
    <!-- Chrome -->
    <defs>
     <path d="M 58.796875 25.09375 
L 68.265625 22.703125 
Q 65.28125 11.03125 57.546875 4.90625 
Q 49.8125 -1.21875 38.625 -1.21875 
Q 27.046875 -1.21875 19.796875 3.484375 
Q 12.546875 8.203125 8.765625 17.140625 
Q 4.984375 26.078125 4.984375 36.328125 
Q 4.984375 47.515625 9.25 55.828125 
Q 13.53125 64.15625 21.40625 68.46875 
Q 29.296875 72.796875 38.765625 72.796875 
Q 49.515625 72.796875 56.828125 67.328125 
Q 64.15625 61.859375 67.046875 51.953125 
L 57.71875 49.75 
Q 55.21875 57.5625 50.484375 61.125 
Q 45.75 64.703125 38.578125 64.703125 
Q 30.328125 64.703125 24.78125 60.734375 
Q 19.234375 56.78125 16.984375 50.109375 
Q 14.75 43.453125 14.75 36.375 
Q 14.75 27.25 17.40625 20.4375 
Q 20.0625 13.625 25.671875 10.25 
Q 31.296875 6.890625 37.84375 6.890625 
Q 45.796875 6.890625 51.3125 11.46875 
Q 56.84375 16.0625 58.796875 25.09375 
z
" id="ArialMT-67"/>
     <path d="M 6.59375 0 
L 6.59375 71.578125 
L 15.375 71.578125 
L 15.375 45.90625 
Q 21.53125 53.03125 30.90625 53.03125 
Q 36.671875 53.03125 40.921875 50.75 
Q 45.171875 48.484375 47 44.484375 
Q 48.828125 40.484375 48.828125 32.859375 
L 48.828125 0 
L 40.046875 0 
L 40.046875 32.859375 
Q 40.046875 39.453125 37.1875 42.453125 
Q 34.328125 45.453125 29.109375 45.453125 
Q 25.203125 45.453125 21.75 43.421875 
Q 18.3125 41.40625 16.84375 37.9375 
Q 15.375 34.46875 15.375 28.375 
L 15.375 0 
z
" id="ArialMT-104"/>
     <path d="M 6.5 0 
L 6.5 51.859375 
L 14.40625 51.859375 
L 14.40625 44 
Q 17.4375 49.515625 20 51.265625 
Q 22.5625 53.03125 25.640625 53.03125 
Q 30.078125 53.03125 34.671875 50.203125 
L 31.640625 42.046875 
Q 28.421875 43.953125 25.203125 43.953125 
Q 22.3125 43.953125 20.015625 42.21875 
Q 17.71875 40.484375 16.75 37.40625 
Q 15.28125 32.71875 15.28125 27.15625 
L 15.28125 0 
z
" id="ArialMT-114"/>
     <path d="M 3.328125 25.921875 
Q 3.328125 40.328125 11.328125 47.265625 
Q 18.015625 53.03125 27.640625 53.03125 
Q 38.328125 53.03125 45.109375 46.015625 
Q 51.90625 39.015625 51.90625 26.65625 
Q 51.90625 16.65625 48.90625 10.90625 
Q 45.90625 5.171875 40.15625 2 
Q 34.421875 -1.171875 27.640625 -1.171875 
Q 16.75 -1.171875 10.03125 5.8125 
Q 3.328125 12.796875 3.328125 25.921875 
z
M 12.359375 25.921875 
Q 12.359375 15.96875 16.703125 11.015625 
Q 21.046875 6.0625 27.640625 6.0625 
Q 34.1875 6.0625 38.53125 11.03125 
Q 42.875 16.015625 42.875 26.21875 
Q 42.875 35.84375 38.5 40.796875 
Q 34.125 45.75 27.640625 45.75 
Q 21.046875 45.75 16.703125 40.8125 
Q 12.359375 35.890625 12.359375 25.921875 
z
" id="ArialMT-111"/>
     <path d="M 6.59375 0 
L 6.59375 51.859375 
L 14.453125 51.859375 
L 14.453125 44.578125 
Q 16.890625 48.390625 20.9375 50.703125 
Q 25 53.03125 30.171875 53.03125 
Q 35.9375 53.03125 39.625 50.640625 
Q 43.3125 48.25 44.828125 43.953125 
Q 50.984375 53.03125 60.84375 53.03125 
Q 68.5625 53.03125 72.703125 48.75 
Q 76.859375 44.484375 76.859375 35.59375 
L 76.859375 0 
L 68.109375 0 
L 68.109375 32.671875 
Q 68.109375 37.9375 67.25 40.25 
Q 66.40625 42.578125 64.15625 43.984375 
Q 61.921875 45.40625 58.890625 45.40625 
Q 53.421875 45.40625 49.796875 41.765625 
Q 46.1875 38.140625 46.1875 30.125 
L 46.1875 0 
L 37.40625 0 
L 37.40625 33.6875 
Q 37.40625 39.546875 35.25 42.46875 
Q 33.109375 45.40625 28.21875 45.40625 
Q 24.515625 45.40625 21.359375 43.453125 
Q 18.21875 41.5 16.796875 37.734375 
Q 15.375 33.984375 15.375 26.90625 
L 15.375 0 
z
" id="ArialMT-109"/>
     <path d="M 42.09375 16.703125 
L 51.171875 15.578125 
Q 49.03125 7.625 43.21875 3.21875 
Q 37.40625 -1.171875 28.375 -1.171875 
Q 17 -1.171875 10.328125 5.828125 
Q 3.65625 12.84375 3.65625 25.484375 
Q 3.65625 38.578125 10.390625 45.796875 
Q 17.140625 53.03125 27.875 53.03125 
Q 38.28125 53.03125 44.875 45.953125 
Q 51.46875 38.875 51.46875 26.03125 
Q 51.46875 25.25 51.421875 23.6875 
L 12.75 23.6875 
Q 13.234375 15.140625 17.578125 10.59375 
Q 21.921875 6.0625 28.421875 6.0625 
Q 33.25 6.0625 36.671875 8.59375 
Q 40.09375 11.140625 42.09375 16.703125 
z
M 13.234375 30.90625 
L 42.1875 30.90625 
Q 41.609375 37.453125 38.875 40.71875 
Q 34.671875 45.796875 27.984375 45.796875 
Q 21.921875 45.796875 17.796875 41.75 
Q 13.671875 37.703125 13.234375 30.90625 
z
" id="ArialMT-101"/>
    </defs>
    <g style="fill:#262626;" transform="translate(199.231481 65.068966)scale(0.12 -0.12)">
     <use xlink:href="#ArialMT-67"/>
     <use x="72.216797" xlink:href="#ArialMT-104"/>
     <use x="127.832031" xlink:href="#ArialMT-114"/>
     <use x="161.132812" xlink:href="#ArialMT-111"/>
     <use x="216.748047" xlink:href="#ArialMT-109"/>
     <use x="300.048828" xlink:href="#ArialMT-101"/>
    </g>
   </g>
  </g>
  <g id="axes_3">
   <g id="line2d_1">
    <path clip-path="url(#p493a1535b0)" d="M 250.932615 61.944828 
L 326.134771 61.944828 
" style="fill:none;stroke:#999999;stroke-linecap:round;stroke-width:0.5;"/>
   </g>
   <g id="line2d_2">
    <path clip-path="url(#p493a1535b0)" d="M 259.779927 63.506897 
L 259.779927 60.382759 
" style="fill:none;stroke:#999999;stroke-linecap:round;stroke-width:0.5;"/>
   </g>
   <g id="line2d_3">
    <path clip-path="url(#p493a1535b0)" d="M 277.474552 63.506897 
L 277.474552 60.382759 
" style="fill:none;stroke:#999999;stroke-linecap:round;stroke-width:0.5;"/>
   </g>
   <g id="line2d_4">
    <path clip-path="url(#p493a1535b0)" d="M 295.169177 63.506897 
L 295.169177 60.382759 
" style="fill:none;stroke:#999999;stroke-linecap:round;stroke-width:0.5;"/>
   </g>
   <g id="line2d_5">
    <path clip-path="url(#p493a1535b0)" d="M 312.863802 63.506897 
L 312.863802 60.382759 
" style="fill:none;stroke:#999999;stroke-linecap:round;stroke-width:0.5;"/>
   </g>
   <g id="line2d_6">
    <path clip-path="url(#p493a1535b0)" d="M 290.899145 61.944828 
L 298.360407 61.944828 
" style="fill:none;stroke:#000000;stroke-linecap:round;stroke-width:2;"/>
   </g>
   <g id="text_3">
    <!-- 50ms -->
    <defs>
     <path d="M 4.15625 18.75 
L 13.375 19.53125 
Q 14.40625 12.796875 18.140625 9.390625 
Q 21.875 6 27.15625 6 
Q 33.5 6 37.890625 10.78125 
Q 42.28125 15.578125 42.28125 23.484375 
Q 42.28125 31 38.0625 35.34375 
Q 33.84375 39.703125 27 39.703125 
Q 22.75 39.703125 19.328125 37.765625 
Q 15.921875 35.84375 13.96875 32.765625 
L 5.71875 33.84375 
L 12.640625 70.609375 
L 48.25 70.609375 
L 48.25 62.203125 
L 19.671875 62.203125 
L 15.828125 42.96875 
Q 22.265625 47.46875 29.34375 47.46875 
Q 38.71875 47.46875 45.15625 40.96875 
Q 51.609375 34.46875 51.609375 24.265625 
Q 51.609375 14.546875 45.953125 7.46875 
Q 39.0625 -1.21875 27.15625 -1.21875 
Q 17.390625 -1.21875 11.203125 4.25 
Q 5.03125 9.71875 4.15625 18.75 
z
" id="ArialMT-53"/>
     <path d="M 4.15625 35.296875 
Q 4.15625 48 6.765625 55.734375 
Q 9.375 63.484375 14.515625 67.671875 
Q 19.671875 71.875 27.484375 71.875 
Q 33.25 71.875 37.59375 69.546875 
Q 41.9375 67.234375 44.765625 62.859375 
Q 47.609375 58.5 49.21875 52.21875 
Q 50.828125 45.953125 50.828125 35.296875 
Q 50.828125 22.703125 48.234375 14.96875 
Q 45.65625 7.234375 40.5 3 
Q 35.359375 -1.21875 27.484375 -1.21875 
Q 17.140625 -1.21875 11.234375 6.203125 
Q 4.15625 15.140625 4.15625 35.296875 
z
M 13.1875 35.296875 
Q 13.1875 17.671875 17.3125 11.828125 
Q 21.4375 6 27.484375 6 
Q 33.546875 6 37.671875 11.859375 
Q 41.796875 17.71875 41.796875 35.296875 
Q 41.796875 52.984375 37.671875 58.78125 
Q 33.546875 64.59375 27.390625 64.59375 
Q 21.34375 64.59375 17.71875 59.46875 
Q 13.1875 52.9375 13.1875 35.296875 
z
" id="ArialMT-48"/>
     <path d="M 3.078125 15.484375 
L 11.765625 16.84375 
Q 12.5 11.625 15.84375 8.84375 
Q 19.1875 6.0625 25.203125 6.0625 
Q 31.25 6.0625 34.171875 8.515625 
Q 37.109375 10.984375 37.109375 14.3125 
Q 37.109375 17.28125 34.515625 19 
Q 32.71875 20.171875 25.53125 21.96875 
Q 15.875 24.421875 12.140625 26.203125 
Q 8.40625 27.984375 6.46875 31.125 
Q 4.546875 34.28125 4.546875 38.09375 
Q 4.546875 41.546875 6.125 44.5 
Q 7.71875 47.46875 10.453125 49.421875 
Q 12.5 50.921875 16.03125 51.96875 
Q 19.578125 53.03125 23.640625 53.03125 
Q 29.734375 53.03125 34.34375 51.265625 
Q 38.96875 49.515625 41.15625 46.5 
Q 43.359375 43.5 44.1875 38.484375 
L 35.59375 37.3125 
Q 35.015625 41.3125 32.203125 43.546875 
Q 29.390625 45.796875 24.265625 45.796875 
Q 18.21875 45.796875 15.625 43.796875 
Q 13.03125 41.796875 13.03125 39.109375 
Q 13.03125 37.40625 14.109375 36.03125 
Q 15.1875 34.625 17.484375 33.6875 
Q 18.796875 33.203125 25.25 31.453125 
Q 34.578125 28.953125 38.25 27.359375 
Q 41.9375 25.78125 44.03125 22.75 
Q 46.140625 19.734375 46.140625 15.234375 
Q 46.140625 10.84375 43.578125 6.953125 
Q 41.015625 3.078125 36.171875 0.953125 
Q 31.34375 -1.171875 25.25 -1.171875 
Q 15.140625 -1.171875 9.84375 3.03125 
Q 4.546875 7.234375 3.078125 15.484375 
z
" id="ArialMT-115"/>
    </defs>
    <g style="fill:#262626;" transform="translate(276.307911 37.2)scale(0.1 -0.1)">
     <use xlink:href="#ArialMT-53"/>
     <use x="55.615234" xlink:href="#ArialMT-48"/>
     <use x="111.230469" xlink:href="#ArialMT-109"/>
     <use x="194.53125" xlink:href="#ArialMT-115"/>
    </g>
   </g>
   <g id="EllipseCollection_1">
    <defs>
     <path d="M 0 2.654194 
C 0.7039 2.654194 1.379066 2.374531 1.876798 1.876798 
C 2.374531 1.379066 2.654194 0.7039 2.654194 0 
C 2.654194 -0.7039 2.374531 -1.379066 1.876798 -1.876798 
C 1.379066 -2.374531 0.7039 -2.654194 0 -2.654194 
C -0.7039 -2.654194 -1.379066 -2.374531 -1.876798 -1.876798 
C -2.374531 -1.379066 -2.654194 -0.7039 -2.654194 0 
C -2.654194 0.7039 -2.374531 1.379066 -1.876798 1.876798 
C -1.379066 2.374531 -0.7039 2.654194 0 2.654194 
z
" id="m2e74c6752e" style="stroke:#ffffff;"/>
    </defs>
    <g clip-path="url(#p493a1535b0)">
     <use style="stroke:#ffffff;" x="294.629776" xlink:href="#m2e74c6752e" y="61.944828"/>
    </g>
   </g>
  </g>
  <g id="axes_4">
   <g id="line2d_7">
    <path clip-path="url(#p6ef8bdba00)" d="M 331.398922 61.944828 
L 406.601078 61.944828 
" style="fill:none;stroke:#999999;stroke-linecap:round;stroke-width:0.5;"/>
   </g>
   <g id="line2d_8">
    <path clip-path="url(#p6ef8bdba00)" d="M 340.246234 63.506897 
L 340.246234 60.382759 
" style="fill:none;stroke:#999999;stroke-linecap:round;stroke-width:0.5;"/>
   </g>
   <g id="line2d_9">
    <path clip-path="url(#p6ef8bdba00)" d="M 357.940859 63.506897 
L 357.940859 60.382759 
" style="fill:none;stroke:#999999;stroke-linecap:round;stroke-width:0.5;"/>
   </g>
   <g id="line2d_10">
    <path clip-path="url(#p6ef8bdba00)" d="M 375.635484 63.506897 
L 375.635484 60.382759 
" style="fill:none;stroke:#999999;stroke-linecap:round;stroke-width:0.5;"/>
   </g>
   <g id="line2d_11">
    <path clip-path="url(#p6ef8bdba00)" d="M 393.330109 63.506897 
L 393.330109 60.382759 
" style="fill:none;stroke:#999999;stroke-linecap:round;stroke-width:0.5;"/>
   </g>
   <g id="line2d_12">
    <path clip-path="url(#p6ef8bdba00)" d="M 372.493373 61.944828 
L 377.518498 61.944828 
" style="fill:none;stroke:#000000;stroke-linecap:round;stroke-width:2;"/>
   </g>
   <g id="text_4">
    <!-- 100ms -->
    <defs>
     <path d="M 37.25 0 
L 28.46875 0 
L 28.46875 56 
Q 25.296875 52.984375 20.140625 49.953125 
Q 14.984375 46.921875 10.890625 45.40625 
L 10.890625 53.90625 
Q 18.265625 57.375 23.78125 62.296875 
Q 29.296875 67.234375 31.59375 71.875 
L 37.25 71.875 
z
" id="ArialMT-49"/>
    </defs>
    <g style="fill:#262626;" transform="translate(353.99375 37.2)scale(0.1 -0.1)">
     <use xlink:href="#ArialMT-49"/>
     <use x="55.615234" xlink:href="#ArialMT-48"/>
     <use x="111.230469" xlink:href="#ArialMT-48"/>
     <use x="166.845703" xlink:href="#ArialMT-109"/>
     <use x="250.146484" xlink:href="#ArialMT-115"/>
    </g>
   </g>
   <g id="EllipseCollection_2">
    <g clip-path="url(#p6ef8bdba00)">
     <use style="stroke:#ffffff;" x="375.005936" xlink:href="#m2e74c6752e" y="61.944828"/>
    </g>
   </g>
  </g>
  <g id="axes_5">
   <g id="line2d_13">
    <path clip-path="url(#p150d6304ec)" d="M 411.865229 61.944828 
L 487.067385 61.944828 
" style="fill:none;stroke:#999999;stroke-linecap:round;stroke-width:0.5;"/>
   </g>
   <g id="line2d_14">
    <path clip-path="url(#p150d6304ec)" d="M 420.712542 63.506897 
L 420.712542 60.382759 
" style="fill:none;stroke:#999999;stroke-linecap:round;stroke-width:0.5;"/>
   </g>
   <g id="line2d_15">
    <path clip-path="url(#p150d6304ec)" d="M 438.407167 63.506897 
L 438.407167 60.382759 
" style="fill:none;stroke:#999999;stroke-linecap:round;stroke-width:0.5;"/>
   </g>
   <g id="line2d_16">
    <path clip-path="url(#p150d6304ec)" d="M 456.101792 63.506897 
L 456.101792 60.382759 
" style="fill:none;stroke:#999999;stroke-linecap:round;stroke-width:0.5;"/>
   </g>
   <g id="line2d_17">
    <path clip-path="url(#p150d6304ec)" d="M 473.796417 63.506897 
L 473.796417 60.382759 
" style="fill:none;stroke:#999999;stroke-linecap:round;stroke-width:0.5;"/>
   </g>
   <g id="line2d_18">
    <path clip-path="url(#p150d6304ec)" d="M 452.797488 61.944828 
L 457.901803 61.944828 
" style="fill:none;stroke:#000000;stroke-linecap:round;stroke-width:2;"/>
   </g>
   <g id="text_5">
    <!-- 250ms -->
    <defs>
     <path d="M 50.34375 8.453125 
L 50.34375 0 
L 3.03125 0 
Q 2.9375 3.171875 4.046875 6.109375 
Q 5.859375 10.9375 9.828125 15.625 
Q 13.8125 20.3125 21.34375 26.46875 
Q 33.015625 36.03125 37.109375 41.625 
Q 41.21875 47.21875 41.21875 52.203125 
Q 41.21875 57.421875 37.46875 61 
Q 33.734375 64.59375 27.734375 64.59375 
Q 21.390625 64.59375 17.578125 60.78125 
Q 13.765625 56.984375 13.71875 50.25 
L 4.6875 51.171875 
Q 5.609375 61.28125 11.65625 66.578125 
Q 17.71875 71.875 27.9375 71.875 
Q 38.234375 71.875 44.234375 66.15625 
Q 50.25 60.453125 50.25 52 
Q 50.25 47.703125 48.484375 43.546875 
Q 46.734375 39.40625 42.65625 34.8125 
Q 38.578125 30.21875 29.109375 22.21875 
Q 21.1875 15.578125 18.9375 13.203125 
Q 16.703125 10.84375 15.234375 8.453125 
z
" id="ArialMT-50"/>
    </defs>
    <g style="fill:#262626;" transform="translate(434.460057 37.2)scale(0.1 -0.1)">
     <use xlink:href="#ArialMT-50"/>
     <use x="55.615234" xlink:href="#ArialMT-53"/>
     <use x="111.230469" xlink:href="#ArialMT-48"/>
     <use x="166.845703" xlink:href="#ArialMT-109"/>
     <use x="250.146484" xlink:href="#ArialMT-115"/>
    </g>
   </g>
   <g id="EllipseCollection_3">
    <g clip-path="url(#p150d6304ec)">
     <use style="stroke:#ffffff;" x="455.349645" xlink:href="#m2e74c6752e" y="61.944828"/>
    </g>
   </g>
  </g>
  <g id="axes_6">
   <g id="line2d_19">
    <path clip-path="url(#pd249785c22)" d="M 492.331536 61.944828 
L 567.533693 61.944828 
" style="fill:none;stroke:#999999;stroke-linecap:round;stroke-width:0.5;"/>
   </g>
   <g id="line2d_20">
    <path clip-path="url(#pd249785c22)" d="M 501.178849 63.506897 
L 501.178849 60.382759 
" style="fill:none;stroke:#999999;stroke-linecap:round;stroke-width:0.5;"/>
   </g>
   <g id="line2d_21">
    <path clip-path="url(#pd249785c22)" d="M 518.873474 63.506897 
L 518.873474 60.382759 
" style="fill:none;stroke:#999999;stroke-linecap:round;stroke-width:0.5;"/>
   </g>
   <g id="line2d_22">
    <path clip-path="url(#pd249785c22)" d="M 536.568099 63.506897 
L 536.568099 60.382759 
" style="fill:none;stroke:#999999;stroke-linecap:round;stroke-width:0.5;"/>
   </g>
   <g id="line2d_23">
    <path clip-path="url(#pd249785c22)" d="M 554.262724 63.506897 
L 554.262724 60.382759 
" style="fill:none;stroke:#999999;stroke-linecap:round;stroke-width:0.5;"/>
   </g>
   <g id="line2d_24">
    <path clip-path="url(#pd249785c22)" d="M 533.356834 61.944828 
L 538.320012 61.944828 
" style="fill:none;stroke:#000000;stroke-linecap:round;stroke-width:2;"/>
   </g>
   <g id="text_6">
    <!-- 500ms -->
    <g style="fill:#262626;" transform="translate(514.926365 37.2)scale(0.1 -0.1)">
     <use xlink:href="#ArialMT-53"/>
     <use x="55.615234" xlink:href="#ArialMT-48"/>
     <use x="111.230469" xlink:href="#ArialMT-48"/>
     <use x="166.845703" xlink:href="#ArialMT-109"/>
     <use x="250.146484" xlink:href="#ArialMT-115"/>
    </g>
   </g>
   <g id="EllipseCollection_4">
    <g clip-path="url(#pd249785c22)">
     <use style="stroke:#ffffff;" x="535.838423" xlink:href="#m2e74c6752e" y="61.944828"/>
    </g>
   </g>
  </g>
  <g id="axes_7">
   <g id="line2d_25">
    <path clip-path="url(#p040b13ec62)" d="M 572.797844 61.944828 
L 648 61.944828 
" style="fill:none;stroke:#999999;stroke-linecap:round;stroke-width:0.5;"/>
   </g>
   <g id="line2d_26">
    <path clip-path="url(#p040b13ec62)" d="M 581.645156 63.506897 
L 581.645156 60.382759 
" style="fill:none;stroke:#999999;stroke-linecap:round;stroke-width:0.5;"/>
   </g>
   <g id="line2d_27">
    <path clip-path="url(#p040b13ec62)" d="M 599.339781 63.506897 
L 599.339781 60.382759 
" style="fill:none;stroke:#999999;stroke-linecap:round;stroke-width:0.5;"/>
   </g>
   <g id="line2d_28">
    <path clip-path="url(#p040b13ec62)" d="M 617.034406 63.506897 
L 617.034406 60.382759 
" style="fill:none;stroke:#999999;stroke-linecap:round;stroke-width:0.5;"/>
   </g>
   <g id="line2d_29">
    <path clip-path="url(#p040b13ec62)" d="M 634.729031 63.506897 
L 634.729031 60.382759 
" style="fill:none;stroke:#999999;stroke-linecap:round;stroke-width:0.5;"/>
   </g>
   <g id="line2d_30">
    <path clip-path="url(#p040b13ec62)" d="M 613.86671 61.944828 
L 618.927271 61.944828 
" style="fill:none;stroke:#000000;stroke-linecap:round;stroke-width:2;"/>
   </g>
   <g id="text_7">
    <!-- 1000ms -->
    <g style="fill:#262626;" transform="translate(592.612203 37.2)scale(0.1 -0.1)">
     <use xlink:href="#ArialMT-49"/>
     <use x="55.615234" xlink:href="#ArialMT-48"/>
     <use x="111.230469" xlink:href="#ArialMT-48"/>
     <use x="166.845703" xlink:href="#ArialMT-48"/>
     <use x="222.460938" xlink:href="#ArialMT-109"/>
     <use x="305.761719" xlink:href="#ArialMT-115"/>
    </g>
   </g>
   <g id="EllipseCollection_5">
    <g clip-path="url(#p040b13ec62)">
     <use style="stroke:#ffffff;" x="616.396991" xlink:href="#m2e74c6752e" y="61.944828"/>
    </g>
   </g>
  </g>
  <g id="axes_8"/>
  <g id="axes_9">
   <g id="text_8">
    <!-- Firefox -->
    <defs>
     <path d="M 8.203125 0 
L 8.203125 71.578125 
L 56.5 71.578125 
L 56.5 63.140625 
L 17.671875 63.140625 
L 17.671875 40.96875 
L 51.265625 40.96875 
L 51.265625 32.515625 
L 17.671875 32.515625 
L 17.671875 0 
z
" id="ArialMT-70"/>
     <path d="M 6.640625 61.46875 
L 6.640625 71.578125 
L 15.4375 71.578125 
L 15.4375 61.46875 
z
M 6.640625 0 
L 6.640625 51.859375 
L 15.4375 51.859375 
L 15.4375 0 
z
" id="ArialMT-105"/>
     <path d="M 8.6875 0 
L 8.6875 45.015625 
L 0.921875 45.015625 
L 0.921875 51.859375 
L 8.6875 51.859375 
L 8.6875 57.375 
Q 8.6875 62.59375 9.625 65.140625 
Q 10.890625 68.5625 14.078125 70.671875 
Q 17.28125 72.796875 23.046875 72.796875 
Q 26.765625 72.796875 31.25 71.921875 
L 29.9375 64.265625 
Q 27.203125 64.75 24.75 64.75 
Q 20.75 64.75 19.09375 63.03125 
Q 17.4375 61.328125 17.4375 56.640625 
L 17.4375 51.859375 
L 27.546875 51.859375 
L 27.546875 45.015625 
L 17.4375 45.015625 
L 17.4375 0 
z
" id="ArialMT-102"/>
     <path d="M 0.734375 0 
L 19.671875 26.953125 
L 2.15625 51.859375 
L 13.140625 51.859375 
L 21.09375 39.703125 
Q 23.34375 36.234375 24.703125 33.890625 
Q 26.859375 37.109375 28.65625 39.59375 
L 37.40625 51.859375 
L 47.90625 51.859375 
L 29.984375 27.4375 
L 49.265625 0 
L 38.484375 0 
L 27.828125 16.109375 
L 25 20.453125 
L 11.375 0 
z
" id="ArialMT-120"/>
    </defs>
    <g style="fill:#262626;" transform="translate(205.237106 99.434483)scale(0.12 -0.12)">
     <use xlink:href="#ArialMT-70"/>
     <use x="61.083984" xlink:href="#ArialMT-105"/>
     <use x="83.300781" xlink:href="#ArialMT-114"/>
     <use x="116.601562" xlink:href="#ArialMT-101"/>
     <use x="172.216797" xlink:href="#ArialMT-102"/>
     <use x="200" xlink:href="#ArialMT-111"/>
     <use x="255.615234" xlink:href="#ArialMT-120"/>
    </g>
   </g>
  </g>
  <g id="axes_10">
   <g id="line2d_31">
    <path clip-path="url(#pcb395e7e8c)" d="M 250.932615 96.310345 
L 326.134771 96.310345 
" style="fill:none;stroke:#999999;stroke-linecap:round;stroke-width:0.5;"/>
   </g>
   <g id="line2d_32">
    <path clip-path="url(#pcb395e7e8c)" d="M 259.779927 97.872414 
L 259.779927 94.748276 
" style="fill:none;stroke:#999999;stroke-linecap:round;stroke-width:0.5;"/>
   </g>
   <g id="line2d_33">
    <path clip-path="url(#pcb395e7e8c)" d="M 277.474552 97.872414 
L 277.474552 94.748276 
" style="fill:none;stroke:#999999;stroke-linecap:round;stroke-width:0.5;"/>
   </g>
   <g id="line2d_34">
    <path clip-path="url(#pcb395e7e8c)" d="M 295.169177 97.872414 
L 295.169177 94.748276 
" style="fill:none;stroke:#999999;stroke-linecap:round;stroke-width:0.5;"/>
   </g>
   <g id="line2d_35">
    <path clip-path="url(#pcb395e7e8c)" d="M 312.863802 97.872414 
L 312.863802 94.748276 
" style="fill:none;stroke:#999999;stroke-linecap:round;stroke-width:0.5;"/>
   </g>
   <g id="line2d_36">
    <path clip-path="url(#pcb395e7e8c)" d="M 303.400457 96.310345 
L 308.599195 96.310345 
" style="fill:none;stroke:#000000;stroke-linecap:round;stroke-width:2;"/>
   </g>
   <g id="EllipseCollection_6">
    <g clip-path="url(#pcb395e7e8c)">
     <use style="stroke:#ffffff;" x="305.999826" xlink:href="#m2e74c6752e" y="96.310345"/>
    </g>
   </g>
  </g>
  <g id="axes_11">
   <g id="line2d_37">
    <path clip-path="url(#p498b034402)" d="M 331.398922 96.310345 
L 406.601078 96.310345 
" style="fill:none;stroke:#999999;stroke-linecap:round;stroke-width:0.5;"/>
   </g>
   <g id="line2d_38">
    <path clip-path="url(#p498b034402)" d="M 340.246234 97.872414 
L 340.246234 94.748276 
" style="fill:none;stroke:#999999;stroke-linecap:round;stroke-width:0.5;"/>
   </g>
   <g id="line2d_39">
    <path clip-path="url(#p498b034402)" d="M 357.940859 97.872414 
L 357.940859 94.748276 
" style="fill:none;stroke:#999999;stroke-linecap:round;stroke-width:0.5;"/>
   </g>
   <g id="line2d_40">
    <path clip-path="url(#p498b034402)" d="M 375.635484 97.872414 
L 375.635484 94.748276 
" style="fill:none;stroke:#999999;stroke-linecap:round;stroke-width:0.5;"/>
   </g>
   <g id="line2d_41">
    <path clip-path="url(#p498b034402)" d="M 393.330109 97.872414 
L 393.330109 94.748276 
" style="fill:none;stroke:#999999;stroke-linecap:round;stroke-width:0.5;"/>
   </g>
   <g id="line2d_42">
    <path clip-path="url(#p498b034402)" d="M 380.874646 96.310345 
L 383.955831 96.310345 
" style="fill:none;stroke:#000000;stroke-linecap:round;stroke-width:2;"/>
   </g>
   <g id="EllipseCollection_7">
    <g clip-path="url(#p498b034402)">
     <use style="stroke:#ffffff;" x="382.415238" xlink:href="#m2e74c6752e" y="96.310345"/>
    </g>
   </g>
  </g>
  <g id="axes_12">
   <g id="line2d_43">
    <path clip-path="url(#pcbb88194fd)" d="M 411.865229 96.310345 
L 487.067385 96.310345 
" style="fill:none;stroke:#999999;stroke-linecap:round;stroke-width:0.5;"/>
   </g>
   <g id="line2d_44">
    <path clip-path="url(#pcbb88194fd)" d="M 420.712542 97.872414 
L 420.712542 94.748276 
" style="fill:none;stroke:#999999;stroke-linecap:round;stroke-width:0.5;"/>
   </g>
   <g id="line2d_45">
    <path clip-path="url(#pcbb88194fd)" d="M 438.407167 97.872414 
L 438.407167 94.748276 
" style="fill:none;stroke:#999999;stroke-linecap:round;stroke-width:0.5;"/>
   </g>
   <g id="line2d_46">
    <path clip-path="url(#pcbb88194fd)" d="M 456.101792 97.872414 
L 456.101792 94.748276 
" style="fill:none;stroke:#999999;stroke-linecap:round;stroke-width:0.5;"/>
   </g>
   <g id="line2d_47">
    <path clip-path="url(#pcbb88194fd)" d="M 473.796417 97.872414 
L 473.796417 94.748276 
" style="fill:none;stroke:#999999;stroke-linecap:round;stroke-width:0.5;"/>
   </g>
   <g id="line2d_48">
    <path clip-path="url(#pcbb88194fd)" d="M 431.127757 96.310345 
L 447.367443 96.310345 
" style="fill:none;stroke:#000000;stroke-linecap:round;stroke-width:2;"/>
   </g>
   <g id="EllipseCollection_8">
    <g clip-path="url(#pcbb88194fd)">
     <use style="stroke:#ffffff;" x="439.2476" xlink:href="#m2e74c6752e" y="96.310345"/>
    </g>
   </g>
  </g>
  <g id="axes_13">
   <g id="line2d_49">
    <path clip-path="url(#peed492fcc4)" d="M 492.331536 96.310345 
L 567.533693 96.310345 
" style="fill:none;stroke:#999999;stroke-linecap:round;stroke-width:0.5;"/>
   </g>
   <g id="line2d_50">
    <path clip-path="url(#peed492fcc4)" d="M 501.178849 97.872414 
L 501.178849 94.748276 
" style="fill:none;stroke:#999999;stroke-linecap:round;stroke-width:0.5;"/>
   </g>
   <g id="line2d_51">
    <path clip-path="url(#peed492fcc4)" d="M 518.873474 97.872414 
L 518.873474 94.748276 
" style="fill:none;stroke:#999999;stroke-linecap:round;stroke-width:0.5;"/>
   </g>
   <g id="line2d_52">
    <path clip-path="url(#peed492fcc4)" d="M 536.568099 97.872414 
L 536.568099 94.748276 
" style="fill:none;stroke:#999999;stroke-linecap:round;stroke-width:0.5;"/>
   </g>
   <g id="line2d_53">
    <path clip-path="url(#peed492fcc4)" d="M 554.262724 97.872414 
L 554.262724 94.748276 
" style="fill:none;stroke:#999999;stroke-linecap:round;stroke-width:0.5;"/>
   </g>
   <g id="line2d_54">
    <path clip-path="url(#peed492fcc4)" d="M 535.741337 96.310345 
L 547.476752 96.310345 
" style="fill:none;stroke:#000000;stroke-linecap:round;stroke-width:2;"/>
   </g>
   <g id="EllipseCollection_9">
    <g clip-path="url(#peed492fcc4)">
     <use style="stroke:#ffffff;" x="541.609044" xlink:href="#m2e74c6752e" y="96.310345"/>
    </g>
   </g>
  </g>
  <g id="axes_14">
   <g id="line2d_55">
    <path clip-path="url(#p03759e82a9)" d="M 572.797844 96.310345 
L 648 96.310345 
" style="fill:none;stroke:#999999;stroke-linecap:round;stroke-width:0.5;"/>
   </g>
   <g id="line2d_56">
    <path clip-path="url(#p03759e82a9)" d="M 581.645156 97.872414 
L 581.645156 94.748276 
" style="fill:none;stroke:#999999;stroke-linecap:round;stroke-width:0.5;"/>
   </g>
   <g id="line2d_57">
    <path clip-path="url(#p03759e82a9)" d="M 599.339781 97.872414 
L 599.339781 94.748276 
" style="fill:none;stroke:#999999;stroke-linecap:round;stroke-width:0.5;"/>
   </g>
   <g id="line2d_58">
    <path clip-path="url(#p03759e82a9)" d="M 617.034406 97.872414 
L 617.034406 94.748276 
" style="fill:none;stroke:#999999;stroke-linecap:round;stroke-width:0.5;"/>
   </g>
   <g id="line2d_59">
    <path clip-path="url(#p03759e82a9)" d="M 634.729031 97.872414 
L 634.729031 94.748276 
" style="fill:none;stroke:#999999;stroke-linecap:round;stroke-width:0.5;"/>
   </g>
   <g id="line2d_60">
    <path clip-path="url(#p03759e82a9)" d="M 605.990095 96.310345 
L 618.229286 96.310345 
" style="fill:none;stroke:#000000;stroke-linecap:round;stroke-width:2;"/>
   </g>
   <g id="EllipseCollection_10">
    <g clip-path="url(#p03759e82a9)">
     <use style="stroke:#ffffff;" x="612.10969" xlink:href="#m2e74c6752e" y="96.310345"/>
    </g>
   </g>
  </g>
  <g id="axes_15">
   <g id="text_9">
    <!-- Mac OS -->
    <defs>
     <path d="M 7.078125 0 
L 7.078125 71.578125 
L 28.71875 71.578125 
L 41.703125 22.75 
L 54.546875 71.578125 
L 76.21875 71.578125 
L 76.21875 0 
L 62.796875 0 
L 62.796875 56.34375 
L 48.578125 0 
L 34.671875 0 
L 20.515625 56.34375 
L 20.515625 0 
z
" id="Arial-BoldMT-77"/>
     <path d="M 17.4375 36.03125 
L 4.984375 38.28125 
Q 7.078125 45.796875 12.203125 49.40625 
Q 17.328125 53.03125 27.4375 53.03125 
Q 36.625 53.03125 41.109375 50.859375 
Q 45.609375 48.6875 47.4375 45.34375 
Q 49.265625 42 49.265625 33.0625 
L 49.125 17.046875 
Q 49.125 10.203125 49.78125 6.953125 
Q 50.4375 3.71875 52.25 0 
L 38.671875 0 
Q 38.140625 1.375 37.359375 4.046875 
Q 37.015625 5.28125 36.859375 5.671875 
Q 33.34375 2.25 29.34375 0.53125 
Q 25.34375 -1.171875 20.796875 -1.171875 
Q 12.796875 -1.171875 8.171875 3.171875 
Q 3.5625 7.515625 3.5625 14.15625 
Q 3.5625 18.5625 5.65625 22 
Q 7.765625 25.4375 11.546875 27.265625 
Q 15.328125 29.109375 22.46875 30.46875 
Q 32.078125 32.28125 35.796875 33.84375 
L 35.796875 35.203125 
Q 35.796875 39.15625 33.84375 40.84375 
Q 31.890625 42.53125 26.46875 42.53125 
Q 22.796875 42.53125 20.75 41.09375 
Q 18.703125 39.65625 17.4375 36.03125 
z
M 35.796875 24.90625 
Q 33.15625 24.03125 27.4375 22.796875 
Q 21.734375 21.578125 19.96875 20.40625 
Q 17.28125 18.5 17.28125 15.578125 
Q 17.28125 12.703125 19.421875 10.59375 
Q 21.578125 8.5 24.90625 8.5 
Q 28.609375 8.5 31.984375 10.9375 
Q 34.46875 12.796875 35.25 15.484375 
Q 35.796875 17.234375 35.796875 22.171875 
z
" id="Arial-BoldMT-97"/>
     <path d="M 52.390625 36.53125 
L 38.875 34.078125 
Q 38.1875 38.140625 35.765625 40.1875 
Q 33.34375 42.234375 29.5 42.234375 
Q 24.359375 42.234375 21.3125 38.6875 
Q 18.265625 35.15625 18.265625 26.859375 
Q 18.265625 17.625 21.359375 13.8125 
Q 24.46875 10.015625 29.6875 10.015625 
Q 33.59375 10.015625 36.078125 12.234375 
Q 38.578125 14.453125 39.59375 19.875 
L 53.078125 17.578125 
Q 50.984375 8.296875 45.015625 3.5625 
Q 39.0625 -1.171875 29.046875 -1.171875 
Q 17.671875 -1.171875 10.90625 6 
Q 4.15625 13.1875 4.15625 25.875 
Q 4.15625 38.71875 10.9375 45.875 
Q 17.71875 53.03125 29.296875 53.03125 
Q 38.765625 53.03125 44.359375 48.953125 
Q 49.953125 44.875 52.390625 36.53125 
z
" id="Arial-BoldMT-99"/>
     <path id="Arial-BoldMT-32"/>
     <path d="M 4.34375 35.359375 
Q 4.34375 46.296875 7.625 53.71875 
Q 10.0625 59.1875 14.28125 63.53125 
Q 18.5 67.875 23.53125 69.96875 
Q 30.21875 72.796875 38.96875 72.796875 
Q 54.78125 72.796875 64.28125 62.984375 
Q 73.78125 53.171875 73.78125 35.6875 
Q 73.78125 18.359375 64.359375 8.5625 
Q 54.9375 -1.21875 39.15625 -1.21875 
Q 23.1875 -1.21875 13.765625 8.515625 
Q 4.34375 18.265625 4.34375 35.359375 
z
M 19.234375 35.84375 
Q 19.234375 23.6875 24.84375 17.40625 
Q 30.46875 11.140625 39.109375 11.140625 
Q 47.75 11.140625 53.296875 17.359375 
Q 58.84375 23.578125 58.84375 36.03125 
Q 58.84375 48.34375 53.4375 54.390625 
Q 48.046875 60.453125 39.109375 60.453125 
Q 30.171875 60.453125 24.703125 54.3125 
Q 19.234375 48.1875 19.234375 35.84375 
z
" id="Arial-BoldMT-79"/>
     <path d="M 3.609375 23.296875 
L 17.671875 24.65625 
Q 18.953125 17.578125 22.828125 14.25 
Q 26.703125 10.9375 33.296875 10.9375 
Q 40.28125 10.9375 43.8125 13.890625 
Q 47.359375 16.84375 47.359375 20.796875 
Q 47.359375 23.34375 45.875 25.125 
Q 44.390625 26.90625 40.671875 28.21875 
Q 38.140625 29.109375 29.109375 31.34375 
Q 17.484375 34.234375 12.796875 38.421875 
Q 6.203125 44.34375 6.203125 52.828125 
Q 6.203125 58.296875 9.296875 63.0625 
Q 12.40625 67.828125 18.234375 70.3125 
Q 24.078125 72.796875 32.328125 72.796875 
Q 45.796875 72.796875 52.609375 66.890625 
Q 59.421875 60.984375 59.765625 51.125 
L 45.3125 50.484375 
Q 44.390625 56 41.328125 58.421875 
Q 38.28125 60.84375 32.171875 60.84375 
Q 25.875 60.84375 22.3125 58.25 
Q 20.015625 56.59375 20.015625 53.8125 
Q 20.015625 51.265625 22.171875 49.46875 
Q 24.90625 47.171875 35.453125 44.671875 
Q 46 42.1875 51.046875 39.515625 
Q 56.109375 36.859375 58.953125 32.25 
Q 61.8125 27.640625 61.8125 20.84375 
Q 61.8125 14.703125 58.390625 9.328125 
Q 54.984375 3.953125 48.734375 1.34375 
Q 42.484375 -1.265625 33.15625 -1.265625 
Q 19.578125 -1.265625 12.296875 5 
Q 5.03125 11.28125 3.609375 23.296875 
z
" id="Arial-BoldMT-83"/>
    </defs>
    <g style="fill:#262626;" transform="translate(117.428299 133.8)scale(0.12 -0.12)">
     <use xlink:href="#Arial-BoldMT-77"/>
     <use x="83.300781" xlink:href="#Arial-BoldMT-97"/>
     <use x="138.916016" xlink:href="#Arial-BoldMT-99"/>
     <use x="194.53125" xlink:href="#Arial-BoldMT-32"/>
     <use x="222.314453" xlink:href="#Arial-BoldMT-79"/>
     <use x="300.097656" xlink:href="#Arial-BoldMT-83"/>
    </g>
   </g>
  </g>
  <g id="axes_16">
   <g id="text_10">
    <!-- Chrome -->
    <g style="fill:#262626;" transform="translate(199.231481 133.8)scale(0.12 -0.12)">
     <use xlink:href="#ArialMT-67"/>
     <use x="72.216797" xlink:href="#ArialMT-104"/>
     <use x="127.832031" xlink:href="#ArialMT-114"/>
     <use x="161.132812" xlink:href="#ArialMT-111"/>
     <use x="216.748047" xlink:href="#ArialMT-109"/>
     <use x="300.048828" xlink:href="#ArialMT-101"/>
    </g>
   </g>
  </g>
  <g id="axes_17">
   <g id="line2d_61">
    <path clip-path="url(#p7d650d22f1)" d="M 250.932615 130.675862 
L 326.134771 130.675862 
" style="fill:none;stroke:#999999;stroke-linecap:round;stroke-width:0.5;"/>
   </g>
   <g id="line2d_62">
    <path clip-path="url(#p7d650d22f1)" d="M 259.779927 132.237931 
L 259.779927 129.113793 
" style="fill:none;stroke:#999999;stroke-linecap:round;stroke-width:0.5;"/>
   </g>
   <g id="line2d_63">
    <path clip-path="url(#p7d650d22f1)" d="M 277.474552 132.237931 
L 277.474552 129.113793 
" style="fill:none;stroke:#999999;stroke-linecap:round;stroke-width:0.5;"/>
   </g>
   <g id="line2d_64">
    <path clip-path="url(#p7d650d22f1)" d="M 295.169177 132.237931 
L 295.169177 129.113793 
" style="fill:none;stroke:#999999;stroke-linecap:round;stroke-width:0.5;"/>
   </g>
   <g id="line2d_65">
    <path clip-path="url(#p7d650d22f1)" d="M 312.863802 132.237931 
L 312.863802 129.113793 
" style="fill:none;stroke:#999999;stroke-linecap:round;stroke-width:0.5;"/>
   </g>
   <g id="line2d_66">
    <path clip-path="url(#p7d650d22f1)" d="M 295.511109 130.675862 
L 295.759104 130.675862 
" style="fill:none;stroke:#000000;stroke-linecap:round;stroke-width:2;"/>
   </g>
   <g id="EllipseCollection_11">
    <g clip-path="url(#p7d650d22f1)">
     <use style="stroke:#ffffff;" x="295.635107" xlink:href="#m2e74c6752e" y="130.675862"/>
    </g>
   </g>
  </g>
  <g id="axes_18">
   <g id="line2d_67">
    <path clip-path="url(#p298aff613c)" d="M 331.398922 130.675862 
L 406.601078 130.675862 
" style="fill:none;stroke:#999999;stroke-linecap:round;stroke-width:0.5;"/>
   </g>
   <g id="line2d_68">
    <path clip-path="url(#p298aff613c)" d="M 340.246234 132.237931 
L 340.246234 129.113793 
" style="fill:none;stroke:#999999;stroke-linecap:round;stroke-width:0.5;"/>
   </g>
   <g id="line2d_69">
    <path clip-path="url(#p298aff613c)" d="M 357.940859 132.237931 
L 357.940859 129.113793 
" style="fill:none;stroke:#999999;stroke-linecap:round;stroke-width:0.5;"/>
   </g>
   <g id="line2d_70">
    <path clip-path="url(#p298aff613c)" d="M 375.635484 132.237931 
L 375.635484 129.113793 
" style="fill:none;stroke:#999999;stroke-linecap:round;stroke-width:0.5;"/>
   </g>
   <g id="line2d_71">
    <path clip-path="url(#p298aff613c)" d="M 393.330109 132.237931 
L 393.330109 129.113793 
" style="fill:none;stroke:#999999;stroke-linecap:round;stroke-width:0.5;"/>
   </g>
   <g id="line2d_72">
    <path clip-path="url(#p298aff613c)" d="M 375.949087 130.675862 
L 376.214895 130.675862 
" style="fill:none;stroke:#000000;stroke-linecap:round;stroke-width:2;"/>
   </g>
   <g id="EllipseCollection_12">
    <g clip-path="url(#p298aff613c)">
     <use style="stroke:#ffffff;" x="376.081991" xlink:href="#m2e74c6752e" y="130.675862"/>
    </g>
   </g>
  </g>
  <g id="axes_19">
   <g id="line2d_73">
    <path clip-path="url(#p831d060ebf)" d="M 411.865229 130.675862 
L 487.067385 130.675862 
" style="fill:none;stroke:#999999;stroke-linecap:round;stroke-width:0.5;"/>
   </g>
   <g id="line2d_74">
    <path clip-path="url(#p831d060ebf)" d="M 420.712542 132.237931 
L 420.712542 129.113793 
" style="fill:none;stroke:#999999;stroke-linecap:round;stroke-width:0.5;"/>
   </g>
   <g id="line2d_75">
    <path clip-path="url(#p831d060ebf)" d="M 438.407167 132.237931 
L 438.407167 129.113793 
" style="fill:none;stroke:#999999;stroke-linecap:round;stroke-width:0.5;"/>
   </g>
   <g id="line2d_76">
    <path clip-path="url(#p831d060ebf)" d="M 456.101792 132.237931 
L 456.101792 129.113793 
" style="fill:none;stroke:#999999;stroke-linecap:round;stroke-width:0.5;"/>
   </g>
   <g id="line2d_77">
    <path clip-path="url(#p831d060ebf)" d="M 473.796417 132.237931 
L 473.796417 129.113793 
" style="fill:none;stroke:#999999;stroke-linecap:round;stroke-width:0.5;"/>
   </g>
   <g id="line2d_78">
    <path clip-path="url(#p831d060ebf)" d="M 456.423967 130.675862 
L 456.680302 130.675862 
" style="fill:none;stroke:#000000;stroke-linecap:round;stroke-width:2;"/>
   </g>
   <g id="EllipseCollection_13">
    <g clip-path="url(#p831d060ebf)">
     <use style="stroke:#ffffff;" x="456.552134" xlink:href="#m2e74c6752e" y="130.675862"/>
    </g>
   </g>
  </g>
  <g id="axes_20">
   <g id="line2d_79">
    <path clip-path="url(#p2471cff9a1)" d="M 492.331536 130.675862 
L 567.533693 130.675862 
" style="fill:none;stroke:#999999;stroke-linecap:round;stroke-width:0.5;"/>
   </g>
   <g id="line2d_80">
    <path clip-path="url(#p2471cff9a1)" d="M 501.178849 132.237931 
L 501.178849 129.113793 
" style="fill:none;stroke:#999999;stroke-linecap:round;stroke-width:0.5;"/>
   </g>
   <g id="line2d_81">
    <path clip-path="url(#p2471cff9a1)" d="M 518.873474 132.237931 
L 518.873474 129.113793 
" style="fill:none;stroke:#999999;stroke-linecap:round;stroke-width:0.5;"/>
   </g>
   <g id="line2d_82">
    <path clip-path="url(#p2471cff9a1)" d="M 536.568099 132.237931 
L 536.568099 129.113793 
" style="fill:none;stroke:#999999;stroke-linecap:round;stroke-width:0.5;"/>
   </g>
   <g id="line2d_83">
    <path clip-path="url(#p2471cff9a1)" d="M 554.262724 132.237931 
L 554.262724 129.113793 
" style="fill:none;stroke:#999999;stroke-linecap:round;stroke-width:0.5;"/>
   </g>
   <g id="line2d_84">
    <path clip-path="url(#p2471cff9a1)" d="M 536.904363 130.675862 
L 537.162734 130.675862 
" style="fill:none;stroke:#000000;stroke-linecap:round;stroke-width:2;"/>
   </g>
   <g id="EllipseCollection_14">
    <g clip-path="url(#p2471cff9a1)">
     <use style="stroke:#ffffff;" x="537.033548" xlink:href="#m2e74c6752e" y="130.675862"/>
    </g>
   </g>
  </g>
  <g id="axes_21">
   <g id="line2d_85">
    <path clip-path="url(#pdae02a9ba6)" d="M 572.797844 130.675862 
L 648 130.675862 
" style="fill:none;stroke:#999999;stroke-linecap:round;stroke-width:0.5;"/>
   </g>
   <g id="line2d_86">
    <path clip-path="url(#pdae02a9ba6)" d="M 581.645156 132.237931 
L 581.645156 129.113793 
" style="fill:none;stroke:#999999;stroke-linecap:round;stroke-width:0.5;"/>
   </g>
   <g id="line2d_87">
    <path clip-path="url(#pdae02a9ba6)" d="M 599.339781 132.237931 
L 599.339781 129.113793 
" style="fill:none;stroke:#999999;stroke-linecap:round;stroke-width:0.5;"/>
   </g>
   <g id="line2d_88">
    <path clip-path="url(#pdae02a9ba6)" d="M 617.034406 132.237931 
L 617.034406 129.113793 
" style="fill:none;stroke:#999999;stroke-linecap:round;stroke-width:0.5;"/>
   </g>
   <g id="line2d_89">
    <path clip-path="url(#pdae02a9ba6)" d="M 634.729031 132.237931 
L 634.729031 129.113793 
" style="fill:none;stroke:#999999;stroke-linecap:round;stroke-width:0.5;"/>
   </g>
   <g id="line2d_90">
    <path clip-path="url(#pdae02a9ba6)" d="M 617.395767 130.675862 
L 617.651044 130.675862 
" style="fill:none;stroke:#000000;stroke-linecap:round;stroke-width:2;"/>
   </g>
   <g id="EllipseCollection_15">
    <g clip-path="url(#pdae02a9ba6)">
     <use style="stroke:#ffffff;" x="617.523406" xlink:href="#m2e74c6752e" y="130.675862"/>
    </g>
   </g>
  </g>
  <g id="axes_22"/>
  <g id="axes_23">
   <g id="text_11">
    <!-- Firefox -->
    <g style="fill:#262626;" transform="translate(205.237106 168.165517)scale(0.12 -0.12)">
     <use xlink:href="#ArialMT-70"/>
     <use x="61.083984" xlink:href="#ArialMT-105"/>
     <use x="83.300781" xlink:href="#ArialMT-114"/>
     <use x="116.601562" xlink:href="#ArialMT-101"/>
     <use x="172.216797" xlink:href="#ArialMT-102"/>
     <use x="200" xlink:href="#ArialMT-111"/>
     <use x="255.615234" xlink:href="#ArialMT-120"/>
    </g>
   </g>
  </g>
  <g id="axes_24">
   <g id="line2d_91">
    <path clip-path="url(#pd9ef26ac0f)" d="M 250.932615 165.041379 
L 326.134771 165.041379 
" style="fill:none;stroke:#999999;stroke-linecap:round;stroke-width:0.5;"/>
   </g>
   <g id="line2d_92">
    <path clip-path="url(#pd9ef26ac0f)" d="M 259.779927 166.603448 
L 259.779927 163.47931 
" style="fill:none;stroke:#999999;stroke-linecap:round;stroke-width:0.5;"/>
   </g>
   <g id="line2d_93">
    <path clip-path="url(#pd9ef26ac0f)" d="M 277.474552 166.603448 
L 277.474552 163.47931 
" style="fill:none;stroke:#999999;stroke-linecap:round;stroke-width:0.5;"/>
   </g>
   <g id="line2d_94">
    <path clip-path="url(#pd9ef26ac0f)" d="M 295.169177 166.603448 
L 295.169177 163.47931 
" style="fill:none;stroke:#999999;stroke-linecap:round;stroke-width:0.5;"/>
   </g>
   <g id="line2d_95">
    <path clip-path="url(#pd9ef26ac0f)" d="M 312.863802 166.603448 
L 312.863802 163.47931 
" style="fill:none;stroke:#999999;stroke-linecap:round;stroke-width:0.5;"/>
   </g>
   <g id="line2d_96">
    <path clip-path="url(#pd9ef26ac0f)" d="M 318.071085 165.041379 
L 323.142157 165.041379 
" style="fill:none;stroke:#000000;stroke-linecap:round;stroke-width:2;"/>
   </g>
   <g id="EllipseCollection_16">
    <g clip-path="url(#pd9ef26ac0f)">
     <use style="stroke:#ffffff;" x="320.606621" xlink:href="#m2e74c6752e" y="165.041379"/>
    </g>
   </g>
  </g>
  <g id="axes_25">
   <g id="line2d_97">
    <path clip-path="url(#p8d7c637d55)" d="M 331.398922 165.041379 
L 406.601078 165.041379 
" style="fill:none;stroke:#999999;stroke-linecap:round;stroke-width:0.5;"/>
   </g>
   <g id="line2d_98">
    <path clip-path="url(#p8d7c637d55)" d="M 340.246234 166.603448 
L 340.246234 163.47931 
" style="fill:none;stroke:#999999;stroke-linecap:round;stroke-width:0.5;"/>
   </g>
   <g id="line2d_99">
    <path clip-path="url(#p8d7c637d55)" d="M 357.940859 166.603448 
L 357.940859 163.47931 
" style="fill:none;stroke:#999999;stroke-linecap:round;stroke-width:0.5;"/>
   </g>
   <g id="line2d_100">
    <path clip-path="url(#p8d7c637d55)" d="M 375.635484 166.603448 
L 375.635484 163.47931 
" style="fill:none;stroke:#999999;stroke-linecap:round;stroke-width:0.5;"/>
   </g>
   <g id="line2d_101">
    <path clip-path="url(#p8d7c637d55)" d="M 393.330109 166.603448 
L 393.330109 163.47931 
" style="fill:none;stroke:#999999;stroke-linecap:round;stroke-width:0.5;"/>
   </g>
   <g id="line2d_102">
    <path clip-path="url(#p8d7c637d55)" d="M 399.881677 165.041379 
L 402.496186 165.041379 
" style="fill:none;stroke:#000000;stroke-linecap:round;stroke-width:2;"/>
   </g>
   <g id="EllipseCollection_17">
    <g clip-path="url(#p8d7c637d55)">
     <use style="stroke:#ffffff;" x="401.188932" xlink:href="#m2e74c6752e" y="165.041379"/>
    </g>
   </g>
  </g>
  <g id="axes_26">
   <g id="line2d_103">
    <path clip-path="url(#p93507e8bfc)" d="M 411.865229 165.041379 
L 487.067385 165.041379 
" style="fill:none;stroke:#999999;stroke-linecap:round;stroke-width:0.5;"/>
   </g>
   <g id="line2d_104">
    <path clip-path="url(#p93507e8bfc)" d="M 420.712542 166.603448 
L 420.712542 163.47931 
" style="fill:none;stroke:#999999;stroke-linecap:round;stroke-width:0.5;"/>
   </g>
   <g id="line2d_105">
    <path clip-path="url(#p93507e8bfc)" d="M 438.407167 166.603448 
L 438.407167 163.47931 
" style="fill:none;stroke:#999999;stroke-linecap:round;stroke-width:0.5;"/>
   </g>
   <g id="line2d_106">
    <path clip-path="url(#p93507e8bfc)" d="M 456.101792 166.603448 
L 456.101792 163.47931 
" style="fill:none;stroke:#999999;stroke-linecap:round;stroke-width:0.5;"/>
   </g>
   <g id="line2d_107">
    <path clip-path="url(#p93507e8bfc)" d="M 473.796417 166.603448 
L 473.796417 163.47931 
" style="fill:none;stroke:#999999;stroke-linecap:round;stroke-width:0.5;"/>
   </g>
   <g id="line2d_108">
    <path clip-path="url(#p93507e8bfc)" d="M 462.646919 165.041379 
L 465.295623 165.041379 
" style="fill:none;stroke:#000000;stroke-linecap:round;stroke-width:2;"/>
   </g>
   <g id="EllipseCollection_18">
    <g clip-path="url(#p93507e8bfc)">
     <use style="stroke:#ffffff;" x="463.971271" xlink:href="#m2e74c6752e" y="165.041379"/>
    </g>
   </g>
  </g>
  <g id="axes_27">
   <g id="line2d_109">
    <path clip-path="url(#p6b8641463d)" d="M 492.331536 165.041379 
L 567.533693 165.041379 
" style="fill:none;stroke:#999999;stroke-linecap:round;stroke-width:0.5;"/>
   </g>
   <g id="line2d_110">
    <path clip-path="url(#p6b8641463d)" d="M 501.178849 166.603448 
L 501.178849 163.47931 
" style="fill:none;stroke:#999999;stroke-linecap:round;stroke-width:0.5;"/>
   </g>
   <g id="line2d_111">
    <path clip-path="url(#p6b8641463d)" d="M 518.873474 166.603448 
L 518.873474 163.47931 
" style="fill:none;stroke:#999999;stroke-linecap:round;stroke-width:0.5;"/>
   </g>
   <g id="line2d_112">
    <path clip-path="url(#p6b8641463d)" d="M 536.568099 166.603448 
L 536.568099 163.47931 
" style="fill:none;stroke:#999999;stroke-linecap:round;stroke-width:0.5;"/>
   </g>
   <g id="line2d_113">
    <path clip-path="url(#p6b8641463d)" d="M 554.262724 166.603448 
L 554.262724 163.47931 
" style="fill:none;stroke:#999999;stroke-linecap:round;stroke-width:0.5;"/>
   </g>
   <g id="line2d_114">
    <path clip-path="url(#p6b8641463d)" d="M 560.688561 165.041379 
L 563.445164 165.041379 
" style="fill:none;stroke:#000000;stroke-linecap:round;stroke-width:2;"/>
   </g>
   <g id="EllipseCollection_19">
    <g clip-path="url(#p6b8641463d)">
     <use style="stroke:#ffffff;" x="562.066863" xlink:href="#m2e74c6752e" y="165.041379"/>
    </g>
   </g>
  </g>
  <g id="axes_28">
   <g id="line2d_115">
    <path clip-path="url(#p51588c2f9c)" d="M 572.797844 165.041379 
L 648 165.041379 
" style="fill:none;stroke:#999999;stroke-linecap:round;stroke-width:0.5;"/>
   </g>
   <g id="line2d_116">
    <path clip-path="url(#p51588c2f9c)" d="M 581.645156 166.603448 
L 581.645156 163.47931 
" style="fill:none;stroke:#999999;stroke-linecap:round;stroke-width:0.5;"/>
   </g>
   <g id="line2d_117">
    <path clip-path="url(#p51588c2f9c)" d="M 599.339781 166.603448 
L 599.339781 163.47931 
" style="fill:none;stroke:#999999;stroke-linecap:round;stroke-width:0.5;"/>
   </g>
   <g id="line2d_118">
    <path clip-path="url(#p51588c2f9c)" d="M 617.034406 166.603448 
L 617.034406 163.47931 
" style="fill:none;stroke:#999999;stroke-linecap:round;stroke-width:0.5;"/>
   </g>
   <g id="line2d_119">
    <path clip-path="url(#p51588c2f9c)" d="M 634.729031 166.603448 
L 634.729031 163.47931 
" style="fill:none;stroke:#999999;stroke-linecap:round;stroke-width:0.5;"/>
   </g>
   <g id="line2d_120">
    <path clip-path="url(#p51588c2f9c)" d="M 623.547454 165.041379 
L 626.172246 165.041379 
" style="fill:none;stroke:#000000;stroke-linecap:round;stroke-width:2;"/>
   </g>
   <g id="EllipseCollection_20">
    <g clip-path="url(#p51588c2f9c)">
     <use style="stroke:#ffffff;" x="624.85985" xlink:href="#m2e74c6752e" y="165.041379"/>
    </g>
   </g>
  </g>
  <g id="axes_29"/>
  <g id="axes_30">
   <g id="text_12">
    <!-- Safari -->
    <defs>
     <path d="M 4.5 23 
L 13.421875 23.78125 
Q 14.0625 18.40625 16.375 14.96875 
Q 18.703125 11.53125 23.578125 9.40625 
Q 28.46875 7.28125 34.578125 7.28125 
Q 39.984375 7.28125 44.140625 8.890625 
Q 48.296875 10.5 50.3125 13.296875 
Q 52.34375 16.109375 52.34375 19.4375 
Q 52.34375 22.796875 50.390625 25.3125 
Q 48.4375 27.828125 43.953125 29.546875 
Q 41.0625 30.671875 31.203125 33.03125 
Q 21.34375 35.40625 17.390625 37.5 
Q 12.25 40.1875 9.734375 44.15625 
Q 7.234375 48.140625 7.234375 53.078125 
Q 7.234375 58.5 10.296875 63.203125 
Q 13.375 67.921875 19.28125 70.359375 
Q 25.203125 72.796875 32.421875 72.796875 
Q 40.375 72.796875 46.453125 70.234375 
Q 52.546875 67.671875 55.8125 62.6875 
Q 59.078125 57.71875 59.328125 51.421875 
L 50.25 50.734375 
Q 49.515625 57.515625 45.28125 60.984375 
Q 41.0625 64.453125 32.8125 64.453125 
Q 24.21875 64.453125 20.28125 61.296875 
Q 16.359375 58.15625 16.359375 53.71875 
Q 16.359375 49.859375 19.140625 47.359375 
Q 21.875 44.875 33.421875 42.265625 
Q 44.96875 39.65625 49.265625 37.703125 
Q 55.515625 34.8125 58.484375 30.390625 
Q 61.46875 25.984375 61.46875 20.21875 
Q 61.46875 14.5 58.203125 9.4375 
Q 54.9375 4.390625 48.796875 1.578125 
Q 42.671875 -1.21875 35.015625 -1.21875 
Q 25.296875 -1.21875 18.71875 1.609375 
Q 12.15625 4.4375 8.421875 10.125 
Q 4.6875 15.828125 4.5 23 
z
" id="ArialMT-83"/>
     <path d="M 40.4375 6.390625 
Q 35.546875 2.25 31.03125 0.53125 
Q 26.515625 -1.171875 21.34375 -1.171875 
Q 12.796875 -1.171875 8.203125 3 
Q 3.609375 7.171875 3.609375 13.671875 
Q 3.609375 17.484375 5.34375 20.625 
Q 7.078125 23.78125 9.890625 25.6875 
Q 12.703125 27.59375 16.21875 28.5625 
Q 18.796875 29.25 24.03125 29.890625 
Q 34.671875 31.15625 39.703125 32.90625 
Q 39.75 34.71875 39.75 35.203125 
Q 39.75 40.578125 37.25 42.78125 
Q 33.890625 45.75 27.25 45.75 
Q 21.046875 45.75 18.09375 43.578125 
Q 15.140625 41.40625 13.71875 35.890625 
L 5.125 37.0625 
Q 6.296875 42.578125 8.984375 45.96875 
Q 11.671875 49.359375 16.75 51.1875 
Q 21.828125 53.03125 28.515625 53.03125 
Q 35.15625 53.03125 39.296875 51.46875 
Q 43.453125 49.90625 45.40625 47.53125 
Q 47.359375 45.171875 48.140625 41.546875 
Q 48.578125 39.3125 48.578125 33.453125 
L 48.578125 21.734375 
Q 48.578125 9.46875 49.140625 6.21875 
Q 49.703125 2.984375 51.375 0 
L 42.1875 0 
Q 40.828125 2.734375 40.4375 6.390625 
z
M 39.703125 26.03125 
Q 34.90625 24.078125 25.34375 22.703125 
Q 19.921875 21.921875 17.671875 20.9375 
Q 15.4375 19.96875 14.203125 18.09375 
Q 12.984375 16.21875 12.984375 13.921875 
Q 12.984375 10.40625 15.640625 8.0625 
Q 18.3125 5.71875 23.4375 5.71875 
Q 28.515625 5.71875 32.46875 7.9375 
Q 36.421875 10.15625 38.28125 14.015625 
Q 39.703125 17 39.703125 22.796875 
z
" id="ArialMT-97"/>
    </defs>
    <g style="fill:#262626;" transform="translate(210.562106 202.531034)scale(0.12 -0.12)">
     <use xlink:href="#ArialMT-83"/>
     <use x="66.699219" xlink:href="#ArialMT-97"/>
     <use x="122.314453" xlink:href="#ArialMT-102"/>
     <use x="150.097656" xlink:href="#ArialMT-97"/>
     <use x="205.712891" xlink:href="#ArialMT-114"/>
     <use x="239.013672" xlink:href="#ArialMT-105"/>
    </g>
   </g>
  </g>
  <g id="axes_31">
   <g id="line2d_121">
    <path clip-path="url(#p0786a27199)" d="M 250.932615 199.406897 
L 326.134771 199.406897 
" style="fill:none;stroke:#999999;stroke-linecap:round;stroke-width:0.5;"/>
   </g>
   <g id="line2d_122">
    <path clip-path="url(#p0786a27199)" d="M 259.779927 200.968966 
L 259.779927 197.844828 
" style="fill:none;stroke:#999999;stroke-linecap:round;stroke-width:0.5;"/>
   </g>
   <g id="line2d_123">
    <path clip-path="url(#p0786a27199)" d="M 277.474552 200.968966 
L 277.474552 197.844828 
" style="fill:none;stroke:#999999;stroke-linecap:round;stroke-width:0.5;"/>
   </g>
   <g id="line2d_124">
    <path clip-path="url(#p0786a27199)" d="M 295.169177 200.968966 
L 295.169177 197.844828 
" style="fill:none;stroke:#999999;stroke-linecap:round;stroke-width:0.5;"/>
   </g>
   <g id="line2d_125">
    <path clip-path="url(#p0786a27199)" d="M 312.863802 200.968966 
L 312.863802 197.844828 
" style="fill:none;stroke:#999999;stroke-linecap:round;stroke-width:0.5;"/>
   </g>
   <g id="line2d_126">
    <path clip-path="url(#p0786a27199)" d="M 272.096101 199.406897 
L 273.412608 199.406897 
" style="fill:none;stroke:#000000;stroke-linecap:round;stroke-width:2;"/>
   </g>
   <g id="EllipseCollection_21">
    <g clip-path="url(#p0786a27199)">
     <use style="stroke:#ffffff;" x="272.754355" xlink:href="#m2e74c6752e" y="199.406897"/>
    </g>
   </g>
  </g>
  <g id="axes_32">
   <g id="line2d_127">
    <path clip-path="url(#pfb3d305846)" d="M 331.398922 199.406897 
L 406.601078 199.406897 
" style="fill:none;stroke:#999999;stroke-linecap:round;stroke-width:0.5;"/>
   </g>
   <g id="line2d_128">
    <path clip-path="url(#pfb3d305846)" d="M 340.246234 200.968966 
L 340.246234 197.844828 
" style="fill:none;stroke:#999999;stroke-linecap:round;stroke-width:0.5;"/>
   </g>
   <g id="line2d_129">
    <path clip-path="url(#pfb3d305846)" d="M 357.940859 200.968966 
L 357.940859 197.844828 
" style="fill:none;stroke:#999999;stroke-linecap:round;stroke-width:0.5;"/>
   </g>
   <g id="line2d_130">
    <path clip-path="url(#pfb3d305846)" d="M 375.635484 200.968966 
L 375.635484 197.844828 
" style="fill:none;stroke:#999999;stroke-linecap:round;stroke-width:0.5;"/>
   </g>
   <g id="line2d_131">
    <path clip-path="url(#pfb3d305846)" d="M 393.330109 200.968966 
L 393.330109 197.844828 
" style="fill:none;stroke:#999999;stroke-linecap:round;stroke-width:0.5;"/>
   </g>
   <g id="line2d_132">
    <path clip-path="url(#pfb3d305846)" d="M 351.259927 199.406897 
L 351.880369 199.406897 
" style="fill:none;stroke:#000000;stroke-linecap:round;stroke-width:2;"/>
   </g>
   <g id="EllipseCollection_22">
    <g clip-path="url(#pfb3d305846)">
     <use style="stroke:#ffffff;" x="351.570148" xlink:href="#m2e74c6752e" y="199.406897"/>
    </g>
   </g>
  </g>
  <g id="axes_33">
   <g id="line2d_133">
    <path clip-path="url(#p3d90784f3f)" d="M 411.865229 199.406897 
L 487.067385 199.406897 
" style="fill:none;stroke:#999999;stroke-linecap:round;stroke-width:0.5;"/>
   </g>
   <g id="line2d_134">
    <path clip-path="url(#p3d90784f3f)" d="M 420.712542 200.968966 
L 420.712542 197.844828 
" style="fill:none;stroke:#999999;stroke-linecap:round;stroke-width:0.5;"/>
   </g>
   <g id="line2d_135">
    <path clip-path="url(#p3d90784f3f)" d="M 438.407167 200.968966 
L 438.407167 197.844828 
" style="fill:none;stroke:#999999;stroke-linecap:round;stroke-width:0.5;"/>
   </g>
   <g id="line2d_136">
    <path clip-path="url(#p3d90784f3f)" d="M 456.101792 200.968966 
L 456.101792 197.844828 
" style="fill:none;stroke:#999999;stroke-linecap:round;stroke-width:0.5;"/>
   </g>
   <g id="line2d_137">
    <path clip-path="url(#p3d90784f3f)" d="M 473.796417 200.968966 
L 473.796417 197.844828 
" style="fill:none;stroke:#999999;stroke-linecap:round;stroke-width:0.5;"/>
   </g>
   <g id="line2d_138">
    <path clip-path="url(#p3d90784f3f)" d="M 429.311889 199.406897 
L 430.789175 199.406897 
" style="fill:none;stroke:#000000;stroke-linecap:round;stroke-width:2;"/>
   </g>
   <g id="EllipseCollection_23">
    <g clip-path="url(#p3d90784f3f)">
     <use style="stroke:#ffffff;" x="430.050532" xlink:href="#m2e74c6752e" y="199.406897"/>
    </g>
   </g>
  </g>
  <g id="axes_34">
   <g id="line2d_139">
    <path clip-path="url(#pe452a8e6ed)" d="M 492.331536 199.406897 
L 567.533693 199.406897 
" style="fill:none;stroke:#999999;stroke-linecap:round;stroke-width:0.5;"/>
   </g>
   <g id="line2d_140">
    <path clip-path="url(#pe452a8e6ed)" d="M 501.178849 200.968966 
L 501.178849 197.844828 
" style="fill:none;stroke:#999999;stroke-linecap:round;stroke-width:0.5;"/>
   </g>
   <g id="line2d_141">
    <path clip-path="url(#pe452a8e6ed)" d="M 518.873474 200.968966 
L 518.873474 197.844828 
" style="fill:none;stroke:#999999;stroke-linecap:round;stroke-width:0.5;"/>
   </g>
   <g id="line2d_142">
    <path clip-path="url(#pe452a8e6ed)" d="M 536.568099 200.968966 
L 536.568099 197.844828 
" style="fill:none;stroke:#999999;stroke-linecap:round;stroke-width:0.5;"/>
   </g>
   <g id="line2d_143">
    <path clip-path="url(#pe452a8e6ed)" d="M 554.262724 200.968966 
L 554.262724 197.844828 
" style="fill:none;stroke:#999999;stroke-linecap:round;stroke-width:0.5;"/>
   </g>
   <g id="line2d_144">
    <path clip-path="url(#pe452a8e6ed)" d="M 505.495647 199.406897 
L 507.773698 199.406897 
" style="fill:none;stroke:#000000;stroke-linecap:round;stroke-width:2;"/>
   </g>
   <g id="EllipseCollection_24">
    <g clip-path="url(#pe452a8e6ed)">
     <use style="stroke:#ffffff;" x="506.634673" xlink:href="#m2e74c6752e" y="199.406897"/>
    </g>
   </g>
  </g>
  <g id="axes_35">
   <g id="line2d_145">
    <path clip-path="url(#pe54a8d16be)" d="M 572.797844 199.406897 
L 648 199.406897 
" style="fill:none;stroke:#999999;stroke-linecap:round;stroke-width:0.5;"/>
   </g>
   <g id="line2d_146">
    <path clip-path="url(#pe54a8d16be)" d="M 581.645156 200.968966 
L 581.645156 197.844828 
" style="fill:none;stroke:#999999;stroke-linecap:round;stroke-width:0.5;"/>
   </g>
   <g id="line2d_147">
    <path clip-path="url(#pe54a8d16be)" d="M 599.339781 200.968966 
L 599.339781 197.844828 
" style="fill:none;stroke:#999999;stroke-linecap:round;stroke-width:0.5;"/>
   </g>
   <g id="line2d_148">
    <path clip-path="url(#pe54a8d16be)" d="M 617.034406 200.968966 
L 617.034406 197.844828 
" style="fill:none;stroke:#999999;stroke-linecap:round;stroke-width:0.5;"/>
   </g>
   <g id="line2d_149">
    <path clip-path="url(#pe54a8d16be)" d="M 634.729031 200.968966 
L 634.729031 197.844828 
" style="fill:none;stroke:#999999;stroke-linecap:round;stroke-width:0.5;"/>
   </g>
   <g id="line2d_150">
    <path clip-path="url(#pe54a8d16be)" d="M 578.253623 199.406897 
L 582.192721 199.406897 
" style="fill:none;stroke:#000000;stroke-linecap:round;stroke-width:2;"/>
   </g>
   <g id="EllipseCollection_25">
    <g clip-path="url(#pe54a8d16be)">
     <use style="stroke:#ffffff;" x="580.223172" xlink:href="#m2e74c6752e" y="199.406897"/>
    </g>
   </g>
  </g>
  <g id="axes_36">
   <g id="text_13">
    <!-- Windows -->
    <defs>
     <path d="M 17.4375 0 
L 0.34375 71.578125 
L 15.140625 71.578125 
L 25.921875 22.40625 
L 39.015625 71.578125 
L 56.203125 71.578125 
L 68.75 21.578125 
L 79.734375 71.578125 
L 94.28125 71.578125 
L 76.90625 0 
L 61.578125 0 
L 47.3125 53.515625 
L 33.109375 0 
z
" id="Arial-BoldMT-87"/>
     <path d="M 54.734375 0 
L 42 0 
L 42 7.625 
Q 38.8125 3.171875 34.484375 1 
Q 30.171875 -1.171875 25.78125 -1.171875 
Q 16.84375 -1.171875 10.46875 6.03125 
Q 4.109375 13.234375 4.109375 26.125 
Q 4.109375 39.3125 10.296875 46.171875 
Q 16.5 53.03125 25.984375 53.03125 
Q 34.671875 53.03125 41.015625 45.796875 
L 41.015625 71.578125 
L 54.734375 71.578125 
z
M 18.109375 27.046875 
Q 18.109375 18.75 20.40625 15.046875 
Q 23.734375 9.671875 29.6875 9.671875 
Q 34.421875 9.671875 37.734375 13.6875 
Q 41.0625 17.71875 41.0625 25.734375 
Q 41.0625 34.671875 37.84375 38.59375 
Q 34.625 42.53125 29.59375 42.53125 
Q 24.703125 42.53125 21.40625 38.640625 
Q 18.109375 34.765625 18.109375 27.046875 
z
" id="Arial-BoldMT-100"/>
     <path d="M 4 26.65625 
Q 4 33.5 7.375 39.890625 
Q 10.75 46.296875 16.921875 49.65625 
Q 23.09375 53.03125 30.71875 53.03125 
Q 42.484375 53.03125 50 45.390625 
Q 57.515625 37.75 57.515625 26.078125 
Q 57.515625 14.3125 49.921875 6.5625 
Q 42.328125 -1.171875 30.8125 -1.171875 
Q 23.6875 -1.171875 17.21875 2.046875 
Q 10.75 5.28125 7.375 11.5 
Q 4 17.71875 4 26.65625 
z
M 18.0625 25.921875 
Q 18.0625 18.21875 21.71875 14.109375 
Q 25.390625 10.015625 30.765625 10.015625 
Q 36.140625 10.015625 39.765625 14.109375 
Q 43.40625 18.21875 43.40625 26.03125 
Q 43.40625 33.640625 39.765625 37.734375 
Q 36.140625 41.84375 30.765625 41.84375 
Q 25.390625 41.84375 21.71875 37.734375 
Q 18.0625 33.640625 18.0625 25.921875 
z
" id="Arial-BoldMT-111"/>
     <path d="M 16.84375 0 
L 0.4375 51.859375 
L 13.765625 51.859375 
L 23.484375 17.875 
L 32.421875 51.859375 
L 45.65625 51.859375 
L 54.296875 17.875 
L 64.203125 51.859375 
L 77.734375 51.859375 
L 61.078125 0 
L 47.90625 0 
L 38.96875 33.34375 
L 30.171875 0 
z
" id="Arial-BoldMT-119"/>
     <path d="M 2.34375 14.796875 
L 16.109375 16.890625 
Q 17 12.890625 19.671875 10.8125 
Q 22.359375 8.734375 27.203125 8.734375 
Q 32.515625 8.734375 35.203125 10.6875 
Q 37.015625 12.0625 37.015625 14.359375 
Q 37.015625 15.921875 36.03125 16.9375 
Q 35.015625 17.921875 31.453125 18.75 
Q 14.84375 22.40625 10.40625 25.4375 
Q 4.25 29.640625 4.25 37.109375 
Q 4.25 43.84375 9.5625 48.4375 
Q 14.890625 53.03125 26.078125 53.03125 
Q 36.71875 53.03125 41.890625 49.5625 
Q 47.078125 46.09375 49.03125 39.3125 
L 36.078125 36.921875 
Q 35.25 39.9375 32.921875 41.546875 
Q 30.609375 43.171875 26.3125 43.171875 
Q 20.90625 43.171875 18.5625 41.65625 
Q 17 40.578125 17 38.875 
Q 17 37.40625 18.359375 36.375 
Q 20.21875 35.015625 31.171875 32.515625 
Q 42.140625 30.03125 46.484375 26.421875 
Q 50.78125 22.75 50.78125 16.21875 
Q 50.78125 9.078125 44.828125 3.953125 
Q 38.875 -1.171875 27.203125 -1.171875 
Q 16.609375 -1.171875 10.421875 3.125 
Q 4.25 7.421875 2.34375 14.796875 
z
" id="Arial-BoldMT-115"/>
    </defs>
    <g style="fill:#262626;" transform="translate(108.786424 236.896552)scale(0.12 -0.12)">
     <use xlink:href="#Arial-BoldMT-87"/>
     <use x="94.384766" xlink:href="#Arial-BoldMT-105"/>
     <use x="122.167969" xlink:href="#Arial-BoldMT-110"/>
     <use x="183.251953" xlink:href="#Arial-BoldMT-100"/>
     <use x="244.335938" xlink:href="#Arial-BoldMT-111"/>
     <use x="305.419922" xlink:href="#Arial-BoldMT-119"/>
     <use x="383.203125" xlink:href="#Arial-BoldMT-115"/>
    </g>
   </g>
  </g>
  <g id="axes_37">
   <g id="text_14">
    <!-- Chrome -->
    <g style="fill:#262626;" transform="translate(199.231481 236.896552)scale(0.12 -0.12)">
     <use xlink:href="#ArialMT-67"/>
     <use x="72.216797" xlink:href="#ArialMT-104"/>
     <use x="127.832031" xlink:href="#ArialMT-114"/>
     <use x="161.132812" xlink:href="#ArialMT-111"/>
     <use x="216.748047" xlink:href="#ArialMT-109"/>
     <use x="300.048828" xlink:href="#ArialMT-101"/>
    </g>
   </g>
  </g>
  <g id="axes_38">
   <g id="line2d_151">
    <path clip-path="url(#pf310b2ef13)" d="M 250.932615 233.772414 
L 326.134771 233.772414 
" style="fill:none;stroke:#999999;stroke-linecap:round;stroke-width:0.5;"/>
   </g>
   <g id="line2d_152">
    <path clip-path="url(#pf310b2ef13)" d="M 259.779927 235.334483 
L 259.779927 232.210345 
" style="fill:none;stroke:#999999;stroke-linecap:round;stroke-width:0.5;"/>
   </g>
   <g id="line2d_153">
    <path clip-path="url(#pf310b2ef13)" d="M 277.474552 235.334483 
L 277.474552 232.210345 
" style="fill:none;stroke:#999999;stroke-linecap:round;stroke-width:0.5;"/>
   </g>
   <g id="line2d_154">
    <path clip-path="url(#pf310b2ef13)" d="M 295.169177 235.334483 
L 295.169177 232.210345 
" style="fill:none;stroke:#999999;stroke-linecap:round;stroke-width:0.5;"/>
   </g>
   <g id="line2d_155">
    <path clip-path="url(#pf310b2ef13)" d="M 312.863802 235.334483 
L 312.863802 232.210345 
" style="fill:none;stroke:#999999;stroke-linecap:round;stroke-width:0.5;"/>
   </g>
   <g id="line2d_156">
    <path clip-path="url(#pf310b2ef13)" d="M 277.189876 233.772414 
L 280.70528 233.772414 
" style="fill:none;stroke:#000000;stroke-linecap:round;stroke-width:2;"/>
   </g>
   <g id="EllipseCollection_26">
    <g clip-path="url(#pf310b2ef13)">
     <use style="stroke:#ffffff;" x="278.947578" xlink:href="#m2e74c6752e" y="233.772414"/>
    </g>
   </g>
  </g>
  <g id="axes_39">
   <g id="line2d_157">
    <path clip-path="url(#pd2b275e29e)" d="M 331.398922 233.772414 
L 406.601078 233.772414 
" style="fill:none;stroke:#999999;stroke-linecap:round;stroke-width:0.5;"/>
   </g>
   <g id="line2d_158">
    <path clip-path="url(#pd2b275e29e)" d="M 340.246234 235.334483 
L 340.246234 232.210345 
" style="fill:none;stroke:#999999;stroke-linecap:round;stroke-width:0.5;"/>
   </g>
   <g id="line2d_159">
    <path clip-path="url(#pd2b275e29e)" d="M 357.940859 235.334483 
L 357.940859 232.210345 
" style="fill:none;stroke:#999999;stroke-linecap:round;stroke-width:0.5;"/>
   </g>
   <g id="line2d_160">
    <path clip-path="url(#pd2b275e29e)" d="M 375.635484 235.334483 
L 375.635484 232.210345 
" style="fill:none;stroke:#999999;stroke-linecap:round;stroke-width:0.5;"/>
   </g>
   <g id="line2d_161">
    <path clip-path="url(#pd2b275e29e)" d="M 393.330109 235.334483 
L 393.330109 232.210345 
" style="fill:none;stroke:#999999;stroke-linecap:round;stroke-width:0.5;"/>
   </g>
   <g id="line2d_162">
    <path clip-path="url(#pd2b275e29e)" d="M 357.405567 233.772414 
L 360.965518 233.772414 
" style="fill:none;stroke:#000000;stroke-linecap:round;stroke-width:2;"/>
   </g>
   <g id="EllipseCollection_27">
    <g clip-path="url(#pd2b275e29e)">
     <use style="stroke:#ffffff;" x="359.185543" xlink:href="#m2e74c6752e" y="233.772414"/>
    </g>
   </g>
  </g>
  <g id="axes_40">
   <g id="line2d_163">
    <path clip-path="url(#p16fad5d666)" d="M 411.865229 233.772414 
L 487.067385 233.772414 
" style="fill:none;stroke:#999999;stroke-linecap:round;stroke-width:0.5;"/>
   </g>
   <g id="line2d_164">
    <path clip-path="url(#p16fad5d666)" d="M 420.712542 235.334483 
L 420.712542 232.210345 
" style="fill:none;stroke:#999999;stroke-linecap:round;stroke-width:0.5;"/>
   </g>
   <g id="line2d_165">
    <path clip-path="url(#p16fad5d666)" d="M 438.407167 235.334483 
L 438.407167 232.210345 
" style="fill:none;stroke:#999999;stroke-linecap:round;stroke-width:0.5;"/>
   </g>
   <g id="line2d_166">
    <path clip-path="url(#p16fad5d666)" d="M 456.101792 235.334483 
L 456.101792 232.210345 
" style="fill:none;stroke:#999999;stroke-linecap:round;stroke-width:0.5;"/>
   </g>
   <g id="line2d_167">
    <path clip-path="url(#p16fad5d666)" d="M 473.796417 235.334483 
L 473.796417 232.210345 
" style="fill:none;stroke:#999999;stroke-linecap:round;stroke-width:0.5;"/>
   </g>
   <g id="line2d_168">
    <path clip-path="url(#p16fad5d666)" d="M 438.63005 233.772414 
L 441.186963 233.772414 
" style="fill:none;stroke:#000000;stroke-linecap:round;stroke-width:2;"/>
   </g>
   <g id="EllipseCollection_28">
    <g clip-path="url(#p16fad5d666)">
     <use style="stroke:#ffffff;" x="439.908507" xlink:href="#m2e74c6752e" y="233.772414"/>
    </g>
   </g>
  </g>
  <g id="axes_41">
   <g id="line2d_169">
    <path clip-path="url(#p338d2b8363)" d="M 492.331536 233.772414 
L 567.533693 233.772414 
" style="fill:none;stroke:#999999;stroke-linecap:round;stroke-width:0.5;"/>
   </g>
   <g id="line2d_170">
    <path clip-path="url(#p338d2b8363)" d="M 501.178849 235.334483 
L 501.178849 232.210345 
" style="fill:none;stroke:#999999;stroke-linecap:round;stroke-width:0.5;"/>
   </g>
   <g id="line2d_171">
    <path clip-path="url(#p338d2b8363)" d="M 518.873474 235.334483 
L 518.873474 232.210345 
" style="fill:none;stroke:#999999;stroke-linecap:round;stroke-width:0.5;"/>
   </g>
   <g id="line2d_172">
    <path clip-path="url(#p338d2b8363)" d="M 536.568099 235.334483 
L 536.568099 232.210345 
" style="fill:none;stroke:#999999;stroke-linecap:round;stroke-width:0.5;"/>
   </g>
   <g id="line2d_173">
    <path clip-path="url(#p338d2b8363)" d="M 554.262724 235.334483 
L 554.262724 232.210345 
" style="fill:none;stroke:#999999;stroke-linecap:round;stroke-width:0.5;"/>
   </g>
   <g id="line2d_174">
    <path clip-path="url(#p338d2b8363)" d="M 519.208108 233.772414 
L 522.040003 233.772414 
" style="fill:none;stroke:#000000;stroke-linecap:round;stroke-width:2;"/>
   </g>
   <g id="EllipseCollection_29">
    <g clip-path="url(#p338d2b8363)">
     <use style="stroke:#ffffff;" x="520.624055" xlink:href="#m2e74c6752e" y="233.772414"/>
    </g>
   </g>
  </g>
  <g id="axes_42">
   <g id="line2d_175">
    <path clip-path="url(#pc99c922210)" d="M 572.797844 233.772414 
L 648 233.772414 
" style="fill:none;stroke:#999999;stroke-linecap:round;stroke-width:0.5;"/>
   </g>
   <g id="line2d_176">
    <path clip-path="url(#pc99c922210)" d="M 581.645156 235.334483 
L 581.645156 232.210345 
" style="fill:none;stroke:#999999;stroke-linecap:round;stroke-width:0.5;"/>
   </g>
   <g id="line2d_177">
    <path clip-path="url(#pc99c922210)" d="M 599.339781 235.334483 
L 599.339781 232.210345 
" style="fill:none;stroke:#999999;stroke-linecap:round;stroke-width:0.5;"/>
   </g>
   <g id="line2d_178">
    <path clip-path="url(#pc99c922210)" d="M 617.034406 235.334483 
L 617.034406 232.210345 
" style="fill:none;stroke:#999999;stroke-linecap:round;stroke-width:0.5;"/>
   </g>
   <g id="line2d_179">
    <path clip-path="url(#pc99c922210)" d="M 634.729031 235.334483 
L 634.729031 232.210345 
" style="fill:none;stroke:#999999;stroke-linecap:round;stroke-width:0.5;"/>
   </g>
   <g id="line2d_180">
    <path clip-path="url(#pc99c922210)" d="M 599.850941 233.772414 
L 602.781658 233.772414 
" style="fill:none;stroke:#000000;stroke-linecap:round;stroke-width:2;"/>
   </g>
   <g id="EllipseCollection_30">
    <g clip-path="url(#pc99c922210)">
     <use style="stroke:#ffffff;" x="601.3163" xlink:href="#m2e74c6752e" y="233.772414"/>
    </g>
   </g>
  </g>
  <g id="axes_43"/>
  <g id="axes_44">
   <g id="text_15">
    <!-- Firefox -->
    <g style="fill:#262626;" transform="translate(205.237106 271.262069)scale(0.12 -0.12)">
     <use xlink:href="#ArialMT-70"/>
     <use x="61.083984" xlink:href="#ArialMT-105"/>
     <use x="83.300781" xlink:href="#ArialMT-114"/>
     <use x="116.601562" xlink:href="#ArialMT-101"/>
     <use x="172.216797" xlink:href="#ArialMT-102"/>
     <use x="200" xlink:href="#ArialMT-111"/>
     <use x="255.615234" xlink:href="#ArialMT-120"/>
    </g>
   </g>
  </g>
  <g id="axes_45">
   <g id="line2d_181">
    <path clip-path="url(#p534650e8f5)" d="M 250.932615 268.137931 
L 326.134771 268.137931 
" style="fill:none;stroke:#999999;stroke-linecap:round;stroke-width:0.5;"/>
   </g>
   <g id="line2d_182">
    <path clip-path="url(#p534650e8f5)" d="M 259.779927 269.7 
L 259.779927 266.575862 
" style="fill:none;stroke:#999999;stroke-linecap:round;stroke-width:0.5;"/>
   </g>
   <g id="line2d_183">
    <path clip-path="url(#p534650e8f5)" d="M 277.474552 269.7 
L 277.474552 266.575862 
" style="fill:none;stroke:#999999;stroke-linecap:round;stroke-width:0.5;"/>
   </g>
   <g id="line2d_184">
    <path clip-path="url(#p534650e8f5)" d="M 295.169177 269.7 
L 295.169177 266.575862 
" style="fill:none;stroke:#999999;stroke-linecap:round;stroke-width:0.5;"/>
   </g>
   <g id="line2d_185">
    <path clip-path="url(#p534650e8f5)" d="M 312.863802 269.7 
L 312.863802 266.575862 
" style="fill:none;stroke:#999999;stroke-linecap:round;stroke-width:0.5;"/>
   </g>
   <g id="line2d_186">
    <path clip-path="url(#p534650e8f5)" d="M 292.71512 268.137931 
L 307.498233 268.137931 
" style="fill:none;stroke:#000000;stroke-linecap:round;stroke-width:2;"/>
   </g>
   <g id="EllipseCollection_31">
    <g clip-path="url(#p534650e8f5)">
     <use style="stroke:#ffffff;" x="300.106677" xlink:href="#m2e74c6752e" y="268.137931"/>
    </g>
   </g>
  </g>
  <g id="axes_46">
   <g id="line2d_187">
    <path clip-path="url(#p77ecaf76c7)" d="M 331.398922 268.137931 
L 406.601078 268.137931 
" style="fill:none;stroke:#999999;stroke-linecap:round;stroke-width:0.5;"/>
   </g>
   <g id="line2d_188">
    <path clip-path="url(#p77ecaf76c7)" d="M 340.246234 269.7 
L 340.246234 266.575862 
" style="fill:none;stroke:#999999;stroke-linecap:round;stroke-width:0.5;"/>
   </g>
   <g id="line2d_189">
    <path clip-path="url(#p77ecaf76c7)" d="M 357.940859 269.7 
L 357.940859 266.575862 
" style="fill:none;stroke:#999999;stroke-linecap:round;stroke-width:0.5;"/>
   </g>
   <g id="line2d_190">
    <path clip-path="url(#p77ecaf76c7)" d="M 375.635484 269.7 
L 375.635484 266.575862 
" style="fill:none;stroke:#999999;stroke-linecap:round;stroke-width:0.5;"/>
   </g>
   <g id="line2d_191">
    <path clip-path="url(#p77ecaf76c7)" d="M 393.330109 269.7 
L 393.330109 266.575862 
" style="fill:none;stroke:#999999;stroke-linecap:round;stroke-width:0.5;"/>
   </g>
   <g id="line2d_192">
    <path clip-path="url(#p77ecaf76c7)" d="M 373.581406 268.137931 
L 388.654009 268.137931 
" style="fill:none;stroke:#000000;stroke-linecap:round;stroke-width:2;"/>
   </g>
   <g id="EllipseCollection_32">
    <g clip-path="url(#p77ecaf76c7)">
     <use style="stroke:#ffffff;" x="381.117708" xlink:href="#m2e74c6752e" y="268.137931"/>
    </g>
   </g>
  </g>
  <g id="axes_47">
   <g id="line2d_193">
    <path clip-path="url(#p7913ee7627)" d="M 411.865229 268.137931 
L 487.067385 268.137931 
" style="fill:none;stroke:#999999;stroke-linecap:round;stroke-width:0.5;"/>
   </g>
   <g id="line2d_194">
    <path clip-path="url(#p7913ee7627)" d="M 420.712542 269.7 
L 420.712542 266.575862 
" style="fill:none;stroke:#999999;stroke-linecap:round;stroke-width:0.5;"/>
   </g>
   <g id="line2d_195">
    <path clip-path="url(#p7913ee7627)" d="M 438.407167 269.7 
L 438.407167 266.575862 
" style="fill:none;stroke:#999999;stroke-linecap:round;stroke-width:0.5;"/>
   </g>
   <g id="line2d_196">
    <path clip-path="url(#p7913ee7627)" d="M 456.101792 269.7 
L 456.101792 266.575862 
" style="fill:none;stroke:#999999;stroke-linecap:round;stroke-width:0.5;"/>
   </g>
   <g id="line2d_197">
    <path clip-path="url(#p7913ee7627)" d="M 473.796417 269.7 
L 473.796417 266.575862 
" style="fill:none;stroke:#999999;stroke-linecap:round;stroke-width:0.5;"/>
   </g>
   <g id="line2d_198">
    <path clip-path="url(#p7913ee7627)" d="M 435.144515 268.137931 
L 448.943429 268.137931 
" style="fill:none;stroke:#000000;stroke-linecap:round;stroke-width:2;"/>
   </g>
   <g id="EllipseCollection_33">
    <g clip-path="url(#p7913ee7627)">
     <use style="stroke:#ffffff;" x="442.043972" xlink:href="#m2e74c6752e" y="268.137931"/>
    </g>
   </g>
  </g>
  <g id="axes_48">
   <g id="line2d_199">
    <path clip-path="url(#p429473ed10)" d="M 492.331536 268.137931 
L 567.533693 268.137931 
" style="fill:none;stroke:#999999;stroke-linecap:round;stroke-width:0.5;"/>
   </g>
   <g id="line2d_200">
    <path clip-path="url(#p429473ed10)" d="M 501.178849 269.7 
L 501.178849 266.575862 
" style="fill:none;stroke:#999999;stroke-linecap:round;stroke-width:0.5;"/>
   </g>
   <g id="line2d_201">
    <path clip-path="url(#p429473ed10)" d="M 518.873474 269.7 
L 518.873474 266.575862 
" style="fill:none;stroke:#999999;stroke-linecap:round;stroke-width:0.5;"/>
   </g>
   <g id="line2d_202">
    <path clip-path="url(#p429473ed10)" d="M 536.568099 269.7 
L 536.568099 266.575862 
" style="fill:none;stroke:#999999;stroke-linecap:round;stroke-width:0.5;"/>
   </g>
   <g id="line2d_203">
    <path clip-path="url(#p429473ed10)" d="M 554.262724 269.7 
L 554.262724 266.575862 
" style="fill:none;stroke:#999999;stroke-linecap:round;stroke-width:0.5;"/>
   </g>
   <g id="line2d_204">
    <path clip-path="url(#p429473ed10)" d="M 532.820436 268.137931 
L 547.010391 268.137931 
" style="fill:none;stroke:#000000;stroke-linecap:round;stroke-width:2;"/>
   </g>
   <g id="EllipseCollection_34">
    <g clip-path="url(#p429473ed10)">
     <use style="stroke:#ffffff;" x="539.915413" xlink:href="#m2e74c6752e" y="268.137931"/>
    </g>
   </g>
  </g>
  <g id="axes_49">
   <g id="line2d_205">
    <path clip-path="url(#p77de5c1036)" d="M 572.797844 268.137931 
L 648 268.137931 
" style="fill:none;stroke:#999999;stroke-linecap:round;stroke-width:0.5;"/>
   </g>
   <g id="line2d_206">
    <path clip-path="url(#p77de5c1036)" d="M 581.645156 269.7 
L 581.645156 266.575862 
" style="fill:none;stroke:#999999;stroke-linecap:round;stroke-width:0.5;"/>
   </g>
   <g id="line2d_207">
    <path clip-path="url(#p77de5c1036)" d="M 599.339781 269.7 
L 599.339781 266.575862 
" style="fill:none;stroke:#999999;stroke-linecap:round;stroke-width:0.5;"/>
   </g>
   <g id="line2d_208">
    <path clip-path="url(#p77de5c1036)" d="M 617.034406 269.7 
L 617.034406 266.575862 
" style="fill:none;stroke:#999999;stroke-linecap:round;stroke-width:0.5;"/>
   </g>
   <g id="line2d_209">
    <path clip-path="url(#p77de5c1036)" d="M 634.729031 269.7 
L 634.729031 266.575862 
" style="fill:none;stroke:#999999;stroke-linecap:round;stroke-width:0.5;"/>
   </g>
   <g id="line2d_210">
    <path clip-path="url(#p77de5c1036)" d="M 595.885277 268.137931 
L 609.673638 268.137931 
" style="fill:none;stroke:#000000;stroke-linecap:round;stroke-width:2;"/>
   </g>
   <g id="EllipseCollection_35">
    <g clip-path="url(#p77de5c1036)">
     <use style="stroke:#ffffff;" x="602.779458" xlink:href="#m2e74c6752e" y="268.137931"/>
    </g>
   </g>
  </g>
  <g id="axes_50"/>
  <g id="axes_51">
   <g id="text_16">
    <!-- Edge -->
    <defs>
     <path d="M 7.90625 0 
L 7.90625 71.578125 
L 59.671875 71.578125 
L 59.671875 63.140625 
L 17.390625 63.140625 
L 17.390625 41.21875 
L 56.984375 41.21875 
L 56.984375 32.8125 
L 17.390625 32.8125 
L 17.390625 8.453125 
L 61.328125 8.453125 
L 61.328125 0 
z
" id="ArialMT-69"/>
     <path d="M 40.234375 0 
L 40.234375 6.546875 
Q 35.296875 -1.171875 25.734375 -1.171875 
Q 19.53125 -1.171875 14.328125 2.25 
Q 9.125 5.671875 6.265625 11.796875 
Q 3.421875 17.921875 3.421875 25.875 
Q 3.421875 33.640625 6 39.96875 
Q 8.59375 46.296875 13.765625 49.65625 
Q 18.953125 53.03125 25.34375 53.03125 
Q 30.03125 53.03125 33.6875 51.046875 
Q 37.359375 49.078125 39.65625 45.90625 
L 39.65625 71.578125 
L 48.390625 71.578125 
L 48.390625 0 
z
M 12.453125 25.875 
Q 12.453125 15.921875 16.640625 10.984375 
Q 20.84375 6.0625 26.5625 6.0625 
Q 32.328125 6.0625 36.34375 10.765625 
Q 40.375 15.484375 40.375 25.140625 
Q 40.375 35.796875 36.265625 40.765625 
Q 32.171875 45.75 26.171875 45.75 
Q 20.3125 45.75 16.375 40.96875 
Q 12.453125 36.1875 12.453125 25.875 
z
" id="ArialMT-100"/>
     <path d="M 4.984375 -4.296875 
L 13.53125 -5.5625 
Q 14.0625 -9.515625 16.5 -11.328125 
Q 19.78125 -13.765625 25.4375 -13.765625 
Q 31.546875 -13.765625 34.859375 -11.328125 
Q 38.1875 -8.890625 39.359375 -4.5 
Q 40.046875 -1.8125 39.984375 6.78125 
Q 34.234375 0 25.640625 0 
Q 14.9375 0 9.078125 7.71875 
Q 3.21875 15.4375 3.21875 26.21875 
Q 3.21875 33.640625 5.90625 39.90625 
Q 8.59375 46.1875 13.6875 49.609375 
Q 18.796875 53.03125 25.6875 53.03125 
Q 34.859375 53.03125 40.828125 45.609375 
L 40.828125 51.859375 
L 48.921875 51.859375 
L 48.921875 7.03125 
Q 48.921875 -5.078125 46.453125 -10.125 
Q 44 -15.1875 38.640625 -18.109375 
Q 33.296875 -21.046875 25.484375 -21.046875 
Q 16.21875 -21.046875 10.5 -16.875 
Q 4.78125 -12.703125 4.984375 -4.296875 
z
M 12.25 26.859375 
Q 12.25 16.65625 16.296875 11.96875 
Q 20.359375 7.28125 26.46875 7.28125 
Q 32.515625 7.28125 36.609375 11.9375 
Q 40.71875 16.609375 40.71875 26.5625 
Q 40.71875 36.078125 36.5 40.90625 
Q 32.28125 45.75 26.3125 45.75 
Q 20.453125 45.75 16.34375 40.984375 
Q 12.25 36.234375 12.25 26.859375 
z
" id="ArialMT-103"/>
    </defs>
    <g style="fill:#262626;" transform="translate(213.884606 305.627586)scale(0.12 -0.12)">
     <use xlink:href="#ArialMT-69"/>
     <use x="66.699219" xlink:href="#ArialMT-100"/>
     <use x="122.314453" xlink:href="#ArialMT-103"/>
     <use x="177.929688" xlink:href="#ArialMT-101"/>
    </g>
   </g>
  </g>
  <g id="axes_52">
   <g id="patch_2">
    <path d="M 250.932615 315 
L 326.134771 315 
L 326.134771 283.758621 
L 250.932615 283.758621 
z
" style="fill:#ffffff;"/>
   </g>
   <g id="matplotlib.axis_1">
    <g id="xtick_1">
     <g id="text_17">
      <!-- -1 -->
      <defs>
       <path d="M 3.171875 21.484375 
L 3.171875 30.328125 
L 30.171875 30.328125 
L 30.171875 21.484375 
z
" id="ArialMT-45"/>
      </defs>
      <g style="fill:#262626;" transform="translate(255.334615 331.657812)scale(0.1 -0.1)">
       <use xlink:href="#ArialMT-45"/>
       <use x="33.300781" xlink:href="#ArialMT-49"/>
      </g>
     </g>
    </g>
    <g id="xtick_2">
     <g id="text_18">
      <!-- 0 -->
      <g style="fill:#262626;" transform="translate(274.694083 331.657812)scale(0.1 -0.1)">
       <use xlink:href="#ArialMT-48"/>
      </g>
     </g>
    </g>
    <g id="xtick_3">
     <g id="text_19">
      <!-- +1 -->
      <defs>
       <path d="M 25.046875 11.578125 
L 25.046875 31.203125 
L 5.5625 31.203125 
L 5.5625 39.40625 
L 25.046875 39.40625 
L 25.046875 58.890625 
L 33.34375 58.890625 
L 33.34375 39.40625 
L 52.828125 39.40625 
L 52.828125 31.203125 
L 33.34375 31.203125 
L 33.34375 11.578125 
z
" id="ArialMT-43"/>
      </defs>
      <g style="fill:#262626;" transform="translate(289.468396 331.657812)scale(0.1 -0.1)">
       <use xlink:href="#ArialMT-43"/>
       <use x="58.398438" xlink:href="#ArialMT-49"/>
      </g>
     </g>
    </g>
    <g id="xtick_4">
     <g id="text_20">
      <!-- +2 -->
      <g style="fill:#262626;" transform="translate(307.163021 331.657812)scale(0.1 -0.1)">
       <use xlink:href="#ArialMT-43"/>
       <use x="58.398438" xlink:href="#ArialMT-50"/>
      </g>
     </g>
    </g>
   </g>
   <g id="matplotlib.axis_2">
    <g id="ytick_1"/>
    <g id="ytick_2"/>
   </g>
   <g id="line2d_211">
    <path clip-path="url(#p476766f9d6)" d="M 250.932615 302.503448 
L 326.134771 302.503448 
" style="fill:none;stroke:#999999;stroke-linecap:round;stroke-width:0.5;"/>
   </g>
   <g id="line2d_212">
    <path clip-path="url(#p476766f9d6)" d="M 259.779927 304.065517 
L 259.779927 300.941379 
" style="fill:none;stroke:#999999;stroke-linecap:round;stroke-width:0.5;"/>
   </g>
   <g id="line2d_213">
    <path clip-path="url(#p476766f9d6)" d="M 277.474552 304.065517 
L 277.474552 300.941379 
" style="fill:none;stroke:#999999;stroke-linecap:round;stroke-width:0.5;"/>
   </g>
   <g id="line2d_214">
    <path clip-path="url(#p476766f9d6)" d="M 295.169177 304.065517 
L 295.169177 300.941379 
" style="fill:none;stroke:#999999;stroke-linecap:round;stroke-width:0.5;"/>
   </g>
   <g id="line2d_215">
    <path clip-path="url(#p476766f9d6)" d="M 312.863802 304.065517 
L 312.863802 300.941379 
" style="fill:none;stroke:#999999;stroke-linecap:round;stroke-width:0.5;"/>
   </g>
   <g id="line2d_216">
    <path clip-path="url(#p476766f9d6)" d="M 286.343891 302.503448 
L 299.626369 302.503448 
" style="fill:none;stroke:#000000;stroke-linecap:round;stroke-width:2;"/>
   </g>
   <g id="EllipseCollection_36">
    <g clip-path="url(#p476766f9d6)">
     <use style="stroke:#ffffff;" x="292.98513" xlink:href="#m2e74c6752e" y="302.503448"/>
    </g>
   </g>
  </g>
  <g id="axes_53">
   <g id="line2d_217">
    <path clip-path="url(#pb047366df3)" d="M 331.398922 302.503448 
L 406.601078 302.503448 
" style="fill:none;stroke:#999999;stroke-linecap:round;stroke-width:0.5;"/>
   </g>
   <g id="line2d_218">
    <path clip-path="url(#pb047366df3)" d="M 340.246234 304.065517 
L 340.246234 300.941379 
" style="fill:none;stroke:#999999;stroke-linecap:round;stroke-width:0.5;"/>
   </g>
   <g id="line2d_219">
    <path clip-path="url(#pb047366df3)" d="M 357.940859 304.065517 
L 357.940859 300.941379 
" style="fill:none;stroke:#999999;stroke-linecap:round;stroke-width:0.5;"/>
   </g>
   <g id="line2d_220">
    <path clip-path="url(#pb047366df3)" d="M 375.635484 304.065517 
L 375.635484 300.941379 
" style="fill:none;stroke:#999999;stroke-linecap:round;stroke-width:0.5;"/>
   </g>
   <g id="line2d_221">
    <path clip-path="url(#pb047366df3)" d="M 393.330109 304.065517 
L 393.330109 300.941379 
" style="fill:none;stroke:#999999;stroke-linecap:round;stroke-width:0.5;"/>
   </g>
   <g id="line2d_222">
    <path clip-path="url(#pb047366df3)" d="M 366.938462 302.503448 
L 380.449273 302.503448 
" style="fill:none;stroke:#000000;stroke-linecap:round;stroke-width:2;"/>
   </g>
   <g id="EllipseCollection_37">
    <g clip-path="url(#pb047366df3)">
     <use style="stroke:#ffffff;" x="373.693867" xlink:href="#m2e74c6752e" y="302.503448"/>
    </g>
   </g>
  </g>
  <g id="axes_54">
   <g id="line2d_223">
    <path clip-path="url(#p6b6e187755)" d="M 411.865229 302.503448 
L 487.067385 302.503448 
" style="fill:none;stroke:#999999;stroke-linecap:round;stroke-width:0.5;"/>
   </g>
   <g id="line2d_224">
    <path clip-path="url(#p6b6e187755)" d="M 420.712542 304.065517 
L 420.712542 300.941379 
" style="fill:none;stroke:#999999;stroke-linecap:round;stroke-width:0.5;"/>
   </g>
   <g id="line2d_225">
    <path clip-path="url(#p6b6e187755)" d="M 438.407167 304.065517 
L 438.407167 300.941379 
" style="fill:none;stroke:#999999;stroke-linecap:round;stroke-width:0.5;"/>
   </g>
   <g id="line2d_226">
    <path clip-path="url(#p6b6e187755)" d="M 456.101792 304.065517 
L 456.101792 300.941379 
" style="fill:none;stroke:#999999;stroke-linecap:round;stroke-width:0.5;"/>
   </g>
   <g id="line2d_227">
    <path clip-path="url(#p6b6e187755)" d="M 473.796417 304.065517 
L 473.796417 300.941379 
" style="fill:none;stroke:#999999;stroke-linecap:round;stroke-width:0.5;"/>
   </g>
   <g id="line2d_228">
    <path clip-path="url(#p6b6e187755)" d="M 448.567273 302.503448 
L 463.784464 302.503448 
" style="fill:none;stroke:#000000;stroke-linecap:round;stroke-width:2;"/>
   </g>
   <g id="EllipseCollection_38">
    <g clip-path="url(#p6b6e187755)">
     <use style="stroke:#ffffff;" x="456.175869" xlink:href="#m2e74c6752e" y="302.503448"/>
    </g>
   </g>
  </g>
  <g id="axes_55">
   <g id="line2d_229">
    <path clip-path="url(#p790761869b)" d="M 492.331536 302.503448 
L 567.533693 302.503448 
" style="fill:none;stroke:#999999;stroke-linecap:round;stroke-width:0.5;"/>
   </g>
   <g id="line2d_230">
    <path clip-path="url(#p790761869b)" d="M 501.178849 304.065517 
L 501.178849 300.941379 
" style="fill:none;stroke:#999999;stroke-linecap:round;stroke-width:0.5;"/>
   </g>
   <g id="line2d_231">
    <path clip-path="url(#p790761869b)" d="M 518.873474 304.065517 
L 518.873474 300.941379 
" style="fill:none;stroke:#999999;stroke-linecap:round;stroke-width:0.5;"/>
   </g>
   <g id="line2d_232">
    <path clip-path="url(#p790761869b)" d="M 536.568099 304.065517 
L 536.568099 300.941379 
" style="fill:none;stroke:#999999;stroke-linecap:round;stroke-width:0.5;"/>
   </g>
   <g id="line2d_233">
    <path clip-path="url(#p790761869b)" d="M 554.262724 304.065517 
L 554.262724 300.941379 
" style="fill:none;stroke:#999999;stroke-linecap:round;stroke-width:0.5;"/>
   </g>
   <g id="line2d_234">
    <path clip-path="url(#p790761869b)" d="M 527.695828 302.503448 
L 541.719225 302.503448 
" style="fill:none;stroke:#000000;stroke-linecap:round;stroke-width:2;"/>
   </g>
   <g id="EllipseCollection_39">
    <g clip-path="url(#p790761869b)">
     <use style="stroke:#ffffff;" x="534.707526" xlink:href="#m2e74c6752e" y="302.503448"/>
    </g>
   </g>
  </g>
  <g id="axes_56">
   <g id="line2d_235">
    <path clip-path="url(#pc388f73859)" d="M 572.797844 302.503448 
L 648 302.503448 
" style="fill:none;stroke:#999999;stroke-linecap:round;stroke-width:0.5;"/>
   </g>
   <g id="line2d_236">
    <path clip-path="url(#pc388f73859)" d="M 581.645156 304.065517 
L 581.645156 300.941379 
" style="fill:none;stroke:#999999;stroke-linecap:round;stroke-width:0.5;"/>
   </g>
   <g id="line2d_237">
    <path clip-path="url(#pc388f73859)" d="M 599.339781 304.065517 
L 599.339781 300.941379 
" style="fill:none;stroke:#999999;stroke-linecap:round;stroke-width:0.5;"/>
   </g>
   <g id="line2d_238">
    <path clip-path="url(#pc388f73859)" d="M 617.034406 304.065517 
L 617.034406 300.941379 
" style="fill:none;stroke:#999999;stroke-linecap:round;stroke-width:0.5;"/>
   </g>
   <g id="line2d_239">
    <path clip-path="url(#pc388f73859)" d="M 634.729031 304.065517 
L 634.729031 300.941379 
" style="fill:none;stroke:#999999;stroke-linecap:round;stroke-width:0.5;"/>
   </g>
   <g id="line2d_240">
    <path clip-path="url(#pc388f73859)" d="M 609.726197 302.503448 
L 625.444438 302.503448 
" style="fill:none;stroke:#000000;stroke-linecap:round;stroke-width:2;"/>
   </g>
   <g id="EllipseCollection_40">
    <g clip-path="url(#pc388f73859)">
     <use style="stroke:#ffffff;" x="617.585317" xlink:href="#m2e74c6752e" y="302.503448"/>
    </g>
   </g>
  </g>
 </g>
 <defs>
  <clipPath id="p493a1535b0">
   <rect height="31.241379" width="75.202156" x="250.932615" y="43.2"/>
  </clipPath>
  <clipPath id="p6ef8bdba00">
   <rect height="31.241379" width="75.202156" x="331.398922" y="43.2"/>
  </clipPath>
  <clipPath id="p150d6304ec">
   <rect height="31.241379" width="75.202156" x="411.865229" y="43.2"/>
  </clipPath>
  <clipPath id="pd249785c22">
   <rect height="31.241379" width="75.202156" x="492.331536" y="43.2"/>
  </clipPath>
  <clipPath id="p040b13ec62">
   <rect height="31.241379" width="75.202156" x="572.797844" y="43.2"/>
  </clipPath>
  <clipPath id="pcb395e7e8c">
   <rect height="31.241379" width="75.202156" x="250.932615" y="77.565517"/>
  </clipPath>
  <clipPath id="p498b034402">
   <rect height="31.241379" width="75.202156" x="331.398922" y="77.565517"/>
  </clipPath>
  <clipPath id="pcbb88194fd">
   <rect height="31.241379" width="75.202156" x="411.865229" y="77.565517"/>
  </clipPath>
  <clipPath id="peed492fcc4">
   <rect height="31.241379" width="75.202156" x="492.331536" y="77.565517"/>
  </clipPath>
  <clipPath id="p03759e82a9">
   <rect height="31.241379" width="75.202156" x="572.797844" y="77.565517"/>
  </clipPath>
  <clipPath id="p7d650d22f1">
   <rect height="31.241379" width="75.202156" x="250.932615" y="111.931034"/>
  </clipPath>
  <clipPath id="p298aff613c">
   <rect height="31.241379" width="75.202156" x="331.398922" y="111.931034"/>
  </clipPath>
  <clipPath id="p831d060ebf">
   <rect height="31.241379" width="75.202156" x="411.865229" y="111.931034"/>
  </clipPath>
  <clipPath id="p2471cff9a1">
   <rect height="31.241379" width="75.202156" x="492.331536" y="111.931034"/>
  </clipPath>
  <clipPath id="pdae02a9ba6">
   <rect height="31.241379" width="75.202156" x="572.797844" y="111.931034"/>
  </clipPath>
  <clipPath id="pd9ef26ac0f">
   <rect height="31.241379" width="75.202156" x="250.932615" y="146.296552"/>
  </clipPath>
  <clipPath id="p8d7c637d55">
   <rect height="31.241379" width="75.202156" x="331.398922" y="146.296552"/>
  </clipPath>
  <clipPath id="p93507e8bfc">
   <rect height="31.241379" width="75.202156" x="411.865229" y="146.296552"/>
  </clipPath>
  <clipPath id="p6b8641463d">
   <rect height="31.241379" width="75.202156" x="492.331536" y="146.296552"/>
  </clipPath>
  <clipPath id="p51588c2f9c">
   <rect height="31.241379" width="75.202156" x="572.797844" y="146.296552"/>
  </clipPath>
  <clipPath id="p0786a27199">
   <rect height="31.241379" width="75.202156" x="250.932615" y="180.662069"/>
  </clipPath>
  <clipPath id="pfb3d305846">
   <rect height="31.241379" width="75.202156" x="331.398922" y="180.662069"/>
  </clipPath>
  <clipPath id="p3d90784f3f">
   <rect height="31.241379" width="75.202156" x="411.865229" y="180.662069"/>
  </clipPath>
  <clipPath id="pe452a8e6ed">
   <rect height="31.241379" width="75.202156" x="492.331536" y="180.662069"/>
  </clipPath>
  <clipPath id="pe54a8d16be">
   <rect height="31.241379" width="75.202156" x="572.797844" y="180.662069"/>
  </clipPath>
  <clipPath id="pf310b2ef13">
   <rect height="31.241379" width="75.202156" x="250.932615" y="215.027586"/>
  </clipPath>
  <clipPath id="pd2b275e29e">
   <rect height="31.241379" width="75.202156" x="331.398922" y="215.027586"/>
  </clipPath>
  <clipPath id="p16fad5d666">
   <rect height="31.241379" width="75.202156" x="411.865229" y="215.027586"/>
  </clipPath>
  <clipPath id="p338d2b8363">
   <rect height="31.241379" width="75.202156" x="492.331536" y="215.027586"/>
  </clipPath>
  <clipPath id="pc99c922210">
   <rect height="31.241379" width="75.202156" x="572.797844" y="215.027586"/>
  </clipPath>
  <clipPath id="p534650e8f5">
   <rect height="31.241379" width="75.202156" x="250.932615" y="249.393103"/>
  </clipPath>
  <clipPath id="p77ecaf76c7">
   <rect height="31.241379" width="75.202156" x="331.398922" y="249.393103"/>
  </clipPath>
  <clipPath id="p7913ee7627">
   <rect height="31.241379" width="75.202156" x="411.865229" y="249.393103"/>
  </clipPath>
  <clipPath id="p429473ed10">
   <rect height="31.241379" width="75.202156" x="492.331536" y="249.393103"/>
  </clipPath>
  <clipPath id="p77de5c1036">
   <rect height="31.241379" width="75.202156" x="572.797844" y="249.393103"/>
  </clipPath>
  <clipPath id="p476766f9d6">
   <rect height="31.241379" width="75.202156" x="250.932615" y="283.758621"/>
  </clipPath>
  <clipPath id="pb047366df3">
   <rect height="31.241379" width="75.202156" x="331.398922" y="283.758621"/>
  </clipPath>
  <clipPath id="p6b6e187755">
   <rect height="31.241379" width="75.202156" x="411.865229" y="283.758621"/>
  </clipPath>
  <clipPath id="p790761869b">
   <rect height="31.241379" width="75.202156" x="492.331536" y="283.758621"/>
  </clipPath>
  <clipPath id="pc388f73859">
   <rect height="31.241379" width="75.202156" x="572.797844" y="283.758621"/>
  </clipPath>
 </defs>
</svg>
